<svg width="46" height="46" viewBox="0 0 46 46" fill="none" xmlns="http://www.w3.org/2000/svg">
<rect x="0.00878906" y="0.126953" width="45.67" height="45.6684" rx="17" fill="url(#paint0_linear_807_1241)"/>
<path d="M31.3438 22.9609C31.3438 23.3368 31.1996 23.7001 30.9302 23.9631C30.667 24.2325 30.3036 24.3828 29.9276 24.3828H24.263V30.0453C24.263 30.4211 24.1126 30.7844 23.8432 31.0475C23.58 31.3106 23.2229 31.4609 22.8469 31.4609C22.4709 31.4609 22.1075 31.3106 21.8443 31.0475C21.5749 30.7844 21.4245 30.4211 21.4245 30.0453V24.3828H15.7599C15.3839 24.3828 15.0205 24.2325 14.7573 23.9631C14.4941 23.7001 14.3438 23.3368 14.3438 22.9609C14.3438 22.5851 14.4941 22.2281 14.7573 21.9587C15.0205 21.6956 15.3839 21.5453 15.7599 21.5453H21.4245V15.8828C21.4245 15.507 21.5749 15.1437 21.8443 14.8806C22.1075 14.6113 22.4709 14.4609 22.8469 14.4609C23.2229 14.4609 23.58 14.6113 23.8432 14.8806C24.1126 15.1437 24.263 15.507 24.263 15.8828V21.5453H29.9276C30.3036 21.5453 30.667 21.6956 30.9302 21.9587C31.1996 22.2281 31.3438 22.5851 31.3438 22.9609Z" fill="white"/>
<defs>
<linearGradient id="paint0_linear_807_1241" x1="0.477199" y1="22.9612" x2="45.6788" y2="22.9612" gradientUnits="userSpaceOnUse">
<stop stop-color="#31C2F1"/>
<stop offset="1" stop-color="#71D1F0"/>
</linearGradient>
</defs>
</svg>
