<svg width="72" height="63" viewBox="0 0 72 63" fill="none" xmlns="http://www.w3.org/2000/svg">
<path fill-rule="evenodd" clip-rule="evenodd" d="M44.5191 32.1602H43.3477V34.0162C43.3477 34.7425 42.7584 35.3371 42.0356 35.3371H41.265C40.5436 35.3371 39.953 34.7425 39.953 34.0162V32.1602H32.0133V34.0162C32.0133 34.7425 31.4227 35.3371 30.7013 35.3371H29.9306C29.2092 35.3371 28.6186 34.7425 28.6186 34.0162V32.1602H27.6202C26.9353 32.1503 26.6077 31.7808 26.557 31.131V15.9826C26.1773 16.0209 25.9875 16.1101 25.8947 16.3097V20.6404H25.0622C24.5461 20.6404 24.1214 20.2128 24.1214 19.6919V17.1336C24.1214 16.6226 24.5306 16.2007 25.0369 16.1865C25.1156 15.4418 25.4334 15.2281 26.5837 15.1714C26.7427 13.8732 27.6173 12.9133 29.2191 12.2933C32.6461 11.6604 39.15 11.5939 42.7837 12.2933C44.3841 12.9148 45.2587 13.8746 45.4162 15.1728C46.5694 15.2323 46.8872 15.4489 46.9659 16.1865C47.4708 16.2021 47.88 16.6226 47.88 17.1336V19.6919C47.88 20.2128 47.4553 20.6404 46.9378 20.6404H46.1067V16.2969C46.0139 16.1016 45.8241 16.0166 45.443 15.9812V30.9837C45.443 31.853 45.1659 32.1616 44.5191 32.1602ZM39.0502 54.2215C38.3173 54.7442 37.4423 55.027 36.5442 55.0313C35.7342 55.0327 34.9214 54.8119 34.2056 54.3546L34.1944 54.3419C31.9598 52.9106 29.8969 51.3334 28.0266 49.6544C26.0902 47.9272 24.3464 46.0655 22.8136 44.1231C20.7394 41.5054 19.0406 38.7334 17.7413 35.9133C16.4152 33.0266 15.5025 30.0621 15.0356 27.1315C14.5477 24.0863 14.5392 21.1005 15.0342 18.2846C15.532 15.4602 16.5277 12.793 18.045 10.3905C18.6553 9.43631 19.3598 8.50193 20.1586 7.61143C20.9166 6.74925 21.773 5.93662 22.7109 5.18629C24.8231 3.49307 27.1013 2.1906 29.4553 1.3171C31.8403 0.430848 34.3237 -0.0165225 36.8128 0.000466311C39.292 0.0188708 41.7403 0.495972 44.0719 1.45159C46.3275 2.39305 48.4777 3.74932 50.438 5.55013C51.1284 6.18013 51.788 6.88516 52.4053 7.64399C53.0339 8.41274 53.5908 9.20696 54.0802 10.0153C55.6945 12.7038 56.6888 15.7207 57.1036 18.9033C57.5269 22.1283 57.3609 25.5402 56.6606 28.9536C55.6045 34.1181 53.3967 39.1044 50.3395 43.4634C47.3302 47.7545 43.4686 51.4821 39.0502 54.2215ZM37.1461 51.0871C36.8002 51.3419 36.3305 51.3759 35.9466 51.1282C31.7953 48.468 28.3036 45.2727 25.5656 41.8056C21.7842 37.0289 19.4006 31.7326 18.5864 26.6318C17.7567 21.4601 18.5316 16.4866 21.0881 12.4405C22.0964 10.8407 23.3831 9.38393 24.9525 8.12817C28.5609 5.23159 32.6827 3.70543 36.7833 3.73516C40.7377 3.76348 44.6386 5.24999 48.0094 8.3462C49.1948 9.42923 50.1919 10.6722 51.0061 12.02C53.7553 16.5773 54.3473 22.3902 53.1366 28.2825C51.2522 37.5131 45.1969 46.1674 37.1461 51.0871ZM66.4763 58.9656L61.2802 43.6106C61.0537 42.9396 60.6727 42.3096 59.9892 42.3096H57.0811L59.0302 38.3243H59.9892C61.6177 38.3243 62.8467 39.0208 63.7748 40.0925C64.3781 40.7877 64.7663 41.5748 65.0236 42.3336L72 62.9523H0L6.24094 42.4426C6.52641 41.5238 7.00875 40.5668 7.74422 39.8264H7.75969C8.66953 38.9146 9.8325 38.3243 11.3063 38.3243H13.2384L15.3605 42.3096H11.3063C10.6214 42.3096 10.2136 42.9566 10.0153 43.6106L5.34094 58.9656H66.4763ZM34.1142 30.0139H37.8858C37.987 30.0139 38.0714 30.0975 38.0714 30.1994V30.8365C38.0714 30.9384 37.987 31.0219 37.8858 31.0219H34.1142C34.013 31.0219 33.93 30.9384 33.93 30.8365V30.1994C33.93 30.0975 34.013 30.0139 34.1142 30.0139ZM43.9425 30.0253C44.0725 30.0253 44.1971 30.0773 44.289 30.1698C44.3809 30.2623 44.4326 30.3878 44.4326 30.5187C44.4326 30.6495 44.3809 30.775 44.289 30.8675C44.1971 30.9601 44.0725 31.012 43.9425 31.012C43.6739 31.012 43.4545 30.7912 43.4545 30.5179C43.4545 30.3875 43.5059 30.2624 43.5974 30.1701C43.6888 30.0777 43.813 30.0256 43.9425 30.0253ZM27.8072 30.0253C27.9372 30.0253 28.0618 30.0773 28.1537 30.1698C28.2456 30.2623 28.2973 30.3878 28.2973 30.5187C28.2973 30.6495 28.2456 30.775 28.1537 30.8675C28.0618 30.9601 27.9372 31.012 27.8072 31.012C27.6772 31.012 27.5526 30.9601 27.4606 30.8675C27.3687 30.775 27.3171 30.6495 27.3171 30.5187C27.3171 30.3878 27.3687 30.2623 27.4606 30.1698C27.5526 30.0773 27.6772 30.0253 27.8072 30.0253ZM44.8073 28.3278L44.7525 27.014C44.723 26.7833 44.602 26.6827 44.3855 26.7195C43.2802 27.3071 42.2395 27.981 41.2425 28.7171C41.0302 28.8587 41.1145 29.1319 41.3944 29.0824L44.3475 28.8658C44.6358 28.8162 44.7736 28.6237 44.8073 28.3278ZM27.1181 28.3278L27.173 27.014C27.2025 26.7833 27.3234 26.6827 27.54 26.7195C28.6439 27.3071 29.6845 27.981 30.683 28.7171C30.8953 28.8587 30.8095 29.1319 30.5297 29.0824L27.5766 28.8658C27.2897 28.8162 27.1519 28.6237 27.1181 28.3278ZM33.4378 12.9827H38.5636C38.7352 12.9827 38.8758 13.1271 38.8758 13.2998V14.1195C38.8758 14.2923 38.7338 14.4353 38.5636 14.4353H33.4378C33.2662 14.4353 33.1256 14.2937 33.1256 14.1195V13.2998C33.1256 13.1257 33.2662 12.9827 33.4378 12.9827ZM28.0491 15.4744H43.8806C44.0902 15.4744 44.2631 15.6471 44.2631 15.8609V24.2689C44.2631 24.4784 44.093 24.5974 43.8806 24.654C38.4511 26.3146 33.4786 26.2453 28.0491 24.654C27.8353 24.5959 27.6666 24.4784 27.6666 24.2689V15.8595C27.6652 15.6471 27.8395 15.4744 28.0491 15.4744Z" />
</svg>
