<svg width="30" height="30" viewBox="0 0 30 30" fill="none" xmlns="http://www.w3.org/2000/svg">
<path d="M7.75195 23.0976C8.51367 22.9569 9.02344 22.2245 8.88281 21.4628C8.74219 20.7011 8.00977 20.1913 7.24805 20.3319C5.34961 20.6776 3.67969 21.164 2.44336 21.7851C1.82812 22.0956 1.25391 22.4706 0.814453 22.9335C0.375 23.4081 0 24.0526 0 24.8436C0 26.0976 0.908203 26.9589 1.70508 27.4804C2.56641 28.0429 3.71484 28.494 5.00977 28.8515C7.62891 29.5722 11.1562 29.9999 15 29.9999C18.8438 29.9999 22.3711 29.5722 24.9844 28.8515C26.2793 28.494 27.4336 28.0429 28.2891 27.4804C29.0918 26.9589 29.9941 26.0976 29.9941 24.8436C29.9941 24.0526 29.6191 23.4081 29.1738 22.9335C28.7344 22.4706 28.1602 22.0956 27.5449 21.7851C26.3145 21.164 24.6445 20.6776 22.7402 20.3319C21.9785 20.1913 21.2461 20.7011 21.1055 21.4628C20.9648 22.2245 21.4746 22.9569 22.2363 23.0976C24.0059 23.4198 25.3828 23.8476 26.2793 24.2987C26.4668 24.3925 26.6191 24.4804 26.7422 24.5624C26.9531 24.703 26.9531 24.9843 26.7422 25.1249C26.2266 25.4589 25.3887 25.8163 24.2227 26.1386C21.9316 26.7772 18.6621 27.1874 15 27.1874C11.3379 27.1874 8.06836 26.7772 5.75977 26.1386C4.59375 25.8163 3.75586 25.4589 3.24023 25.1249C3.0293 24.9843 3.0293 24.703 3.24023 24.5624C3.36328 24.4804 3.52148 24.3925 3.70312 24.2987C4.59961 23.8476 5.97656 23.4257 7.74609 23.0976H7.75195Z" />
<path d="M5 8.125C5 6.39844 6.39844 5 8.125 5H21.875C23.6016 5 25 6.39844 25 8.125V19.375C25 20.3984 24.5078 21.3047 23.75 21.875V23.75C23.75 24.4414 23.1914 25 22.5 25H21.25C20.5586 25 20 24.4414 20 23.75V22.5H10V23.75C10 24.4414 9.44141 25 8.75 25H7.5C6.80859 25 6.25 24.4414 6.25 23.75V21.875C5.49219 21.3047 5 20.3984 5 19.375V8.125ZM10.0742 10.9453L9.375 13.75H20.625L19.9258 10.9453C19.7852 10.3906 19.2852 10 18.7109 10H11.2891C10.7148 10 10.2148 10.3906 10.0781 10.9453H10.0742ZM10 17.5C10 17.1685 9.8683 16.8505 9.63388 16.6161C9.39946 16.3817 9.08152 16.25 8.75 16.25C8.41848 16.25 8.10054 16.3817 7.86612 16.6161C7.6317 16.8505 7.5 17.1685 7.5 17.5C7.5 17.8315 7.6317 18.1495 7.86612 18.3839C8.10054 18.6183 8.41848 18.75 8.75 18.75C9.08152 18.75 9.39946 18.6183 9.63388 18.3839C9.8683 18.1495 10 17.8315 10 17.5ZM21.25 18.75C21.5815 18.75 21.8995 18.6183 22.1339 18.3839C22.3683 18.1495 22.5 17.8315 22.5 17.5C22.5 17.1685 22.3683 16.8505 22.1339 16.6161C21.8995 16.3817 21.5815 16.25 21.25 16.25C20.9185 16.25 20.6005 16.3817 20.3661 16.6161C20.1317 16.8505 20 17.1685 20 17.5C20 17.8315 20.1317 18.1495 20.3661 18.3839C20.6005 18.6183 20.9185 18.75 21.25 18.75Z" />
</svg>
