<svg width="84" height="84" viewBox="0 0 84 84" fill="none" xmlns="http://www.w3.org/2000/svg">
<g clip-path="url(#clip0_1611_2833)">
<path d="M21.7055 64.6733C23.8383 64.2796 25.2656 62.2288 24.8719 60.096C24.4781 57.9632 22.4273 56.5358 20.2945 56.9296C14.9789 57.8976 10.3031 59.2593 6.84141 60.9983C5.11875 61.8679 3.51094 62.9179 2.28047 64.214C1.05 65.5429 0 67.3476 0 69.5624C0 73.0733 2.54297 75.4851 4.77422 76.9452C7.18594 78.5202 10.4016 79.7835 14.0273 80.7843C21.3609 82.8023 31.2375 83.9999 42 83.9999C52.7625 83.9999 62.6391 82.8023 69.9563 80.7843C73.582 79.7835 76.8141 78.5202 79.2094 76.9452C81.457 75.4851 83.9836 73.0733 83.9836 69.5624C83.9836 67.3476 82.9336 65.5429 81.6867 64.214C80.4563 62.9179 78.8484 61.8679 77.1258 60.9983C73.6805 59.2593 69.0047 57.8976 63.6727 56.9296C61.5398 56.5358 59.4891 57.9632 59.0953 60.096C58.7016 62.2288 60.1289 64.2796 62.2617 64.6733C67.2164 65.5757 71.0719 66.7733 73.582 68.0366C74.107 68.2991 74.5336 68.5452 74.8781 68.7749C75.4688 69.1687 75.4688 69.9562 74.8781 70.3499C73.4344 71.2851 71.0883 72.2858 67.8234 73.1882C61.4086 74.9765 52.2539 76.1249 42 76.1249C31.7461 76.1249 22.5914 74.9765 16.1273 73.1882C12.8625 72.2858 10.5164 71.2851 9.07266 70.3499C8.48203 69.9562 8.48203 69.1687 9.07266 68.7749C9.41719 68.5452 9.86016 68.2991 10.3688 68.0366C12.8789 66.7733 16.7344 65.5921 21.6891 64.6733H21.7055Z" fill="#C0C0C0"/>
<path d="M12 4.75C12 -0.084375 15.9156 -4 20.75 -4H59.25C64.0844 -4 68 -0.084375 68 4.75V36.25C68 39.1156 66.6219 41.6531 64.5 43.25V48.5C64.5 50.4359 62.9359 52 61 52H57.5C55.5641 52 54 50.4359 54 48.5V45H26V48.5C26 50.4359 24.4359 52 22.5 52H19C17.0641 52 15.5 50.4359 15.5 48.5V43.25C13.3781 41.6531 12 39.1156 12 36.25V4.75ZM26.2078 12.6469L24.25 20.5H55.75L53.7922 12.6469C53.3984 11.0938 51.9984 10 50.3906 10H29.6094C28.0016 10 26.6016 11.0938 26.2188 12.6469H26.2078ZM26 31C26 30.0717 25.6313 29.1815 24.9749 28.5251C24.3185 27.8688 23.4283 27.5 22.5 27.5C21.5717 27.5 20.6815 27.8688 20.0251 28.5251C19.3687 29.1815 19 30.0717 19 31C19 31.9283 19.3687 32.8185 20.0251 33.4749C20.6815 34.1313 21.5717 34.5 22.5 34.5C23.4283 34.5 24.3185 34.1313 24.9749 33.4749C25.6313 32.8185 26 31.9283 26 31ZM57.5 34.5C58.4283 34.5 59.3185 34.1313 59.9749 33.4749C60.6313 32.8185 61 31.9283 61 31C61 30.0717 60.6313 29.1815 59.9749 28.5251C59.3185 27.8688 58.4283 27.5 57.5 27.5C56.5717 27.5 55.6815 27.8688 55.0251 28.5251C54.3687 29.1815 54 30.0717 54 31C54 31.9283 54.3687 32.8185 55.0251 33.4749C55.6815 34.1313 56.5717 34.5 57.5 34.5Z" fill="#C0C0C0"/>
</g>
<defs>
<clipPath id="clip0_1611_2833">
<rect width="84" height="84" fill="white"/>
</clipPath>
</defs>
</svg>
