<svg width="30" height="30" viewBox="0 0 30 30" fill="none" xmlns="http://www.w3.org/2000/svg">
<path d="M18.75 3.75C18.75 2.75544 18.3549 1.80161 17.6516 1.09835C16.9484 0.395088 15.9946 0 15 0C14.0054 0 13.0516 0.395088 12.3483 1.09835C11.6451 1.80161 11.25 2.75544 11.25 3.75C11.25 4.74456 11.6451 5.69839 12.3483 6.40165C13.0516 7.10491 14.0054 7.5 15 7.5C15.9946 7.5 16.9484 7.10491 17.6516 6.40165C18.3549 5.69839 18.75 4.74456 18.75 3.75ZM13.125 9.375C11.0566 9.375 9.375 11.0566 9.375 13.125V15.9375C9.375 16.9746 10.2129 17.8125 11.25 17.8125H11.3555L12.0059 23.6426C12.1113 24.5918 12.9141 25.3125 13.8691 25.3125H16.1367C17.0918 25.3125 17.8945 24.5918 18 23.6426L18.6445 17.8125H18.75C19.7871 17.8125 20.625 16.9746 20.625 15.9375V13.125C20.625 11.0566 18.9434 9.375 16.875 9.375H13.125ZM7.75195 23.0977C8.51367 22.957 9.02344 22.2246 8.88281 21.4629C8.74219 20.7012 8.00977 20.1914 7.24805 20.332C5.34961 20.6777 3.67969 21.1641 2.44336 21.7852C1.82813 22.0957 1.25391 22.4707 0.814453 22.9336C0.375 23.4082 0 24.0527 0 24.8438C0 26.0977 0.908203 26.959 1.70508 27.4805C2.56641 28.043 3.71484 28.4941 5.00977 28.8516C7.62891 29.5723 11.1563 30 15 30C18.8437 30 22.3711 29.5723 24.9844 28.8516C26.2793 28.4941 27.4336 28.043 28.2891 27.4805C29.0918 26.959 29.9941 26.0977 29.9941 24.8438C29.9941 24.0527 29.6191 23.4082 29.1738 22.9336C28.7344 22.4707 28.1602 22.0957 27.5449 21.7852C26.3145 21.1641 24.6445 20.6777 22.7402 20.332C21.9785 20.1914 21.2461 20.7012 21.1055 21.4629C20.9648 22.2246 21.4746 22.957 22.2363 23.0977C24.0059 23.4199 25.3828 23.8477 26.2793 24.2988C26.4668 24.3926 26.6191 24.4805 26.7422 24.5625C26.9531 24.7031 26.9531 24.9844 26.7422 25.125C26.2266 25.459 25.3887 25.8164 24.2227 26.1387C21.9316 26.7773 18.6621 27.1875 15 27.1875C11.3379 27.1875 8.06836 26.7773 5.75977 26.1387C4.59375 25.8164 3.75586 25.459 3.24023 25.125C3.0293 24.9844 3.0293 24.7031 3.24023 24.5625C3.36328 24.4805 3.52148 24.3926 3.70313 24.2988C4.59961 23.8477 5.97656 23.4258 7.74609 23.0977H7.75195Z" />
</svg>
