<svg width="96" height="123" viewBox="0 0 96 123" fill="none" xmlns="http://www.w3.org/2000/svg">
<path d="M37.06 5V10C37.0579 10.6253 36.8233 11.2275 36.402 11.6896C35.9806 12.1516 35.4025 12.4404 34.78 12.5C34.4926 12.5934 34.1922 12.6406 33.89 12.64H24.6V23H71.29V12.68H62C61.6977 12.6815 61.3972 12.6342 61.11 12.54C60.4824 12.4775 59.9011 12.1819 59.4808 11.7117C59.0605 11.2414 58.8319 10.6306 58.84 10V5H37.06ZM18.4 49.25C18.2352 49.0044 18.1204 48.7288 18.0621 48.4389C18.0038 48.1489 18.0032 47.8503 18.0603 47.5601C18.1174 47.2699 18.2311 46.9939 18.3949 46.7476C18.5587 46.5014 18.7694 46.2898 19.015 46.125C19.2606 45.9602 19.5362 45.8454 19.8261 45.7871C20.1161 45.7288 20.4147 45.7282 20.7049 45.7853C20.9951 45.8424 21.2711 45.9561 21.5174 46.1199C21.7636 46.2837 21.9752 46.4944 22.14 46.74L23.37 48.56L28.24 42.64C28.6193 42.1785 29.1663 41.8866 29.7608 41.8285C30.3553 41.7703 30.9485 41.9507 31.41 42.33C31.8715 42.7093 32.1634 43.2563 32.2215 43.8508C32.2797 44.4453 32.0993 45.0385 31.72 45.5L25 53.7C24.8525 53.8986 24.6694 54.0682 24.46 54.2C24.2154 54.3658 23.9405 54.4817 23.6509 54.5408C23.3614 54.5999 23.063 54.6011 22.773 54.5444C22.483 54.4877 22.2071 54.3742 21.9612 54.2104C21.7152 54.0466 21.5041 53.8357 21.34 53.59L18.4 49.25ZM18.4 72.53C18.2339 72.2844 18.1178 72.0085 18.0583 71.7181C17.9987 71.4276 17.997 71.1283 18.0532 70.8372C18.1094 70.5461 18.2224 70.2689 18.3857 70.0214C18.549 69.774 18.7594 69.5611 19.005 69.395C19.501 69.0595 20.1099 68.9348 20.6978 69.0482C21.2857 69.1617 21.8045 69.504 22.14 70L23.37 71.82L28.24 65.89C28.4278 65.6615 28.6587 65.4722 28.9197 65.333C29.1806 65.1937 29.4664 65.1073 29.7608 65.0785C30.0552 65.0497 30.3523 65.0792 30.6353 65.1652C30.9182 65.2513 31.1815 65.3922 31.41 65.58C31.6385 65.7678 31.8278 65.9988 31.967 66.2597C32.1063 66.5206 32.1927 66.8064 32.2215 67.1008C32.2503 67.3952 32.2208 67.6923 32.1348 67.9753C32.0487 68.2583 31.9078 68.5215 31.72 68.75L25 77C24.8557 77.2042 24.6721 77.3776 24.46 77.51C24.2148 77.6754 23.9393 77.7906 23.6494 77.8489C23.3595 77.9073 23.0609 77.9076 22.7708 77.85C22.4808 77.7923 22.205 77.6778 21.9594 77.5131C21.7138 77.3483 21.5033 77.1365 21.34 76.89L18.4 72.53ZM18.4 96.73C18.2352 96.4844 18.1204 96.2088 18.0621 95.9189C18.0038 95.6289 18.0032 95.3303 18.0603 95.0401C18.1174 94.7499 18.2311 94.4739 18.3949 94.2276C18.5587 93.9814 18.7694 93.7698 19.015 93.605C19.2606 93.4402 19.5362 93.3254 19.8261 93.2671C20.1161 93.2088 20.4147 93.2082 20.7049 93.2653C20.9951 93.3224 21.2711 93.4361 21.5174 93.5999C21.7636 93.7637 21.9752 93.9744 22.14 94.22L23.37 96.05L28.24 90.12C28.6219 89.6585 29.1715 89.3677 29.7679 89.3114C30.3642 89.2551 30.9585 89.4381 31.42 89.82C31.8815 90.2019 32.1723 90.7515 32.2286 91.3479C32.2849 91.9442 32.1019 92.5385 31.72 93L25 101.18C24.8525 101.379 24.6694 101.548 24.46 101.68C24.2154 101.846 23.9405 101.962 23.6509 102.021C23.3614 102.08 23.063 102.081 22.773 102.024C22.483 101.968 22.2071 101.854 21.9612 101.69C21.7152 101.527 21.5041 101.316 21.34 101.07L18.4 96.73ZM23.4 28.16C22.3961 28.1536 21.4344 27.7553 20.72 27.05C20.63 26.96 20.58 26.87 20.49 26.78C19.9324 26.0987 19.6191 25.2502 19.6 24.37V19.28H5.6C5.52393 19.2769 5.44817 19.2915 5.37873 19.3227C5.3093 19.354 5.2481 19.401 5.2 19.46C5.09682 19.5694 5.03342 19.7102 5.02 19.86V117.26C5.01023 117.337 5.02187 117.415 5.05363 117.485C5.0854 117.556 5.13605 117.616 5.2 117.66C5.25113 117.715 5.31291 117.76 5.38164 117.791C5.45038 117.822 5.52464 117.838 5.6 117.84H90.32C90.3954 117.838 90.4696 117.822 90.5384 117.791C90.6071 117.76 90.6689 117.715 90.72 117.66C90.7824 117.615 90.8318 117.554 90.8634 117.484C90.895 117.414 90.9076 117.337 90.9 117.26V19.86C90.8866 19.7102 90.8232 19.5694 90.72 19.46C90.6714 19.4016 90.6101 19.355 90.5408 19.3238C90.4715 19.2926 90.396 19.2776 90.32 19.28H76.32V24.37C76.302 25.2522 75.9846 26.102 75.42 26.78C75.34 26.87 75.29 26.96 75.2 27.05C74.4855 27.7553 73.5239 28.1536 72.52 28.16H23.4ZM5.62 122.88C4.1303 122.877 2.70236 122.284 1.64898 121.231C0.595598 120.178 0.00264367 118.75 0 117.26L0 19.86C0.00264367 18.3703 0.595598 16.9424 1.64898 15.889C2.70236 14.8356 4.1303 14.2426 5.62 14.24H19.62V11.47C19.62 10.4666 20.0179 9.50407 20.7265 8.79359C21.4351 8.08312 22.3966 7.68265 23.4 7.68H32.06V4.2C32.0619 3.6499 32.1734 3.10569 32.3881 2.59918C32.6027 2.09267 32.9161 1.63401 33.31 1.25C33.6925 0.856852 34.1495 0.543834 34.6542 0.329217C35.159 0.114599 35.7015 0.0026828 36.25 0L59.65 0C60.1983 0.00378983 60.7405 0.116209 61.2451 0.330761C61.7497 0.545314 62.2068 0.857745 62.59 1.25C62.9899 1.63987 63.3069 2.10664 63.5217 2.62221C63.7365 3.13778 63.8448 3.69149 63.84 4.25V7.68H72.5C72.9977 7.68 73.4905 7.77803 73.9504 7.9685C74.4102 8.15896 74.828 8.43813 75.1799 8.79007C75.5319 9.142 75.811 9.55981 76.0015 10.0196C76.192 10.4795 76.29 10.9723 76.29 11.47V14.24H90.29C91.7814 14.24 93.2119 14.8318 94.2675 15.8855C95.323 16.9391 95.9173 18.3686 95.92 19.86V117.26C95.9173 118.751 95.323 120.181 94.2675 121.235C93.2119 122.288 91.7814 122.88 90.29 122.88H5.62ZM76.37 99.6C77.0174 99.5594 77.625 99.2736 78.0691 98.8008C78.5132 98.328 78.7604 97.7037 78.7604 97.055C78.7604 96.4063 78.5132 95.782 78.0691 95.3092C77.625 94.8364 77.0174 94.5506 76.37 94.51H42.56C41.9126 94.5506 41.305 94.8364 40.8609 95.3092C40.4168 95.782 40.1696 96.4063 40.1696 97.055C40.1696 97.7037 40.4168 98.328 40.8609 98.8008C41.305 99.2736 41.9126 99.5594 42.56 99.6H76.37ZM76.37 50.8C77.0174 50.7594 77.625 50.4736 78.0691 50.0008C78.5132 49.528 78.7604 48.9037 78.7604 48.255C78.7604 47.6063 78.5132 46.982 78.0691 46.5092C77.625 46.0364 77.0174 45.7506 76.37 45.71H42.56C41.9126 45.7506 41.305 46.0364 40.8609 46.5092C40.4168 46.982 40.1696 47.6063 40.1696 48.255C40.1696 48.9037 40.4168 49.528 40.8609 50.0008C41.305 50.4736 41.9126 50.7594 42.56 50.8H76.37ZM76.37 74.87C77.0174 74.8294 77.625 74.5436 78.0691 74.0708C78.5132 73.598 78.7604 72.9737 78.7604 72.325C78.7604 71.6763 78.5132 71.052 78.0691 70.5792C77.625 70.1064 77.0174 69.8206 76.37 69.78H42.56C41.9126 69.8206 41.305 70.1064 40.8609 70.5792C40.4168 71.052 40.1696 71.6763 40.1696 72.325C40.1696 72.9737 40.4168 73.598 40.8609 74.0708C41.305 74.5436 41.9126 74.8294 42.56 74.87H76.37Z" />
</svg>
