<svg width="10" height="11" viewBox="0 0 10 11" fill="none" xmlns="http://www.w3.org/2000/svg">
<path fill-rule="evenodd" clip-rule="evenodd" d="M2.32481 6.74609C2.39803 6.74609 2.46825 6.78032 2.52002 6.84124C2.57179 6.90217 2.60088 6.9848 2.60088 7.07096C2.60088 7.15712 2.57179 7.23975 2.52002 7.30068C2.46825 7.3616 2.39803 7.39583 2.32481 7.39583H1.8065L1.12362 9.71061H9.06206L8.32074 7.39583H7.89241C7.81919 7.39583 7.74897 7.3616 7.69719 7.30068C7.64542 7.23975 7.61633 7.15712 7.61633 7.07096C7.61633 6.9848 7.64542 6.90217 7.69719 6.84124C7.74897 6.78032 7.81919 6.74609 7.89241 6.74609H8.71524L9.82722 10.3585H0.377686L1.402 6.74609H2.32481Z" />
<path fill-rule="evenodd" clip-rule="evenodd" d="M6.43932 7.49191C6.09956 7.93253 5.70802 8.31373 5.27659 8.62397C5.24974 8.64735 5.21749 8.66056 5.18411 8.66185C5.15073 8.66314 5.11781 8.65246 5.08972 8.63121C4.47516 8.1746 3.92941 7.6009 3.47481 6.93358C2.88267 6.06305 2.51124 5.09931 2.38436 4.16995C2.25747 3.2406 2.37744 2.3221 2.77424 1.5855C2.93634 1.28573 3.14016 1.0202 3.37714 0.800028C3.93852 0.271555 4.58064 -0.00535118 5.22275 7.83378e-05C5.87378 0.0123914 6.49712 0.312121 6.96917 0.839845C7.15118 1.0353 7.30838 1.26051 7.43595 1.50858C7.86429 2.33839 7.95657 3.39715 7.76816 4.47039C7.56027 5.5974 7.10168 6.6392 6.43932 7.4892V7.49191ZM5.09741 1.11223C5.46402 1.11205 5.82244 1.23982 6.12734 1.47939C6.43223 1.71896 6.66989 2.05955 6.81026 2.45809C6.95062 2.85662 6.98739 3.2952 6.91591 3.71833C6.84442 4.14146 6.66789 4.53013 6.40866 4.83518C6.14942 5.14024 5.81913 5.34796 5.45955 5.43208C5.09997 5.5162 4.72727 5.47294 4.38859 5.30776C4.04991 5.14258 3.76048 4.86292 3.55689 4.50414C3.35331 4.14536 3.24472 3.72359 3.24487 3.29218C3.24528 2.71417 3.44059 2.15997 3.78792 1.75125C4.13525 1.34253 4.60621 1.1127 5.09741 1.11223Z" />
</svg>
