<svg width="10" height="11" viewBox="0 0 10 11" fill="none" xmlns="http://www.w3.org/2000/svg">
<path fill-rule="evenodd" clip-rule="evenodd" d="M2.06055 6.74609C2.13803 6.74609 2.21234 6.78032 2.26713 6.84124C2.32192 6.90217 2.3527 6.9848 2.3527 7.07096C2.3527 7.15712 2.32192 7.23975 2.26713 7.30068C2.21234 7.3616 2.13803 7.39583 2.06055 7.39583H1.51204L0.789388 9.71061H9.19027L8.40576 7.39583H7.95247C7.87499 7.39583 7.80068 7.3616 7.74589 7.30068C7.6911 7.23975 7.66032 7.15712 7.66032 7.07096C7.66032 6.9848 7.6911 6.90217 7.74589 6.84124C7.80068 6.78032 7.87499 6.74609 7.95247 6.74609H8.82324L10 10.3585H0L1.08398 6.74609H2.06055Z" />
<path fill-rule="evenodd" clip-rule="evenodd" d="M6.41444 7.49191C6.05488 7.93253 5.64054 8.31373 5.18397 8.62397C5.15556 8.64735 5.12143 8.66056 5.08611 8.66185C5.05079 8.66314 5.01595 8.65246 4.98622 8.63121C4.33586 8.1746 3.75832 7.6009 3.27723 6.93358C2.6506 6.06305 2.25754 5.09931 2.12326 4.16995C1.98898 3.2406 2.11594 2.3221 2.53586 1.5855C2.7074 1.28573 2.92309 1.0202 3.17388 0.800028C3.76795 0.271555 4.44748 -0.00535118 5.127 7.83378e-05C5.81596 0.0123914 6.4756 0.312121 6.97515 0.839845C7.16776 1.0353 7.33412 1.26051 7.46913 1.50858C7.92241 2.33839 8.02007 3.39715 7.82069 4.47039C7.60068 5.5974 7.11538 6.6392 6.41444 7.4892V7.49191ZM4.99435 1.11223C5.38232 1.11205 5.76163 1.23982 6.08428 1.47939C6.40693 1.71896 6.65844 2.05955 6.80698 2.45809C6.95553 2.85662 6.99444 3.2952 6.91879 3.71833C6.84314 4.14146 6.65633 4.53013 6.38199 4.83518C6.10765 5.14024 5.75812 5.34796 5.37759 5.43208C4.99707 5.5162 4.60266 5.47294 4.24425 5.30776C3.88584 5.14258 3.57954 4.86292 3.3641 4.50414C3.14865 4.14536 3.03374 3.72359 3.03391 3.29218C3.03434 2.71417 3.24102 2.15997 3.60858 1.75125C3.97615 1.34253 4.47454 1.1127 4.99435 1.11223Z" />
<path fill-rule="evenodd" clip-rule="evenodd" d="M4.35381 2.75302L4.8014 3.23082L5.58103 2.35305C5.66241 2.26256 5.70635 2.19559 5.80157 2.30418L6.10837 2.65439C6.2101 2.76569 6.2044 2.83085 6.10837 2.9331L4.98044 4.16289C4.77943 4.38098 4.81768 4.39455 4.61098 4.17013L3.83624 3.31408C3.82634 3.30417 3.81858 3.29192 3.81353 3.27823C3.80847 3.26454 3.80626 3.24976 3.80704 3.23498C3.80782 3.22021 3.81158 3.20582 3.81804 3.19288C3.82451 3.17994 3.83351 3.16878 3.84437 3.16024L4.20163 2.7485C4.25453 2.68697 4.29766 2.69059 4.35381 2.7485V2.75302Z" />
</svg>
