<svg width="11" height="10" viewBox="0 0 11 10" fill="none" xmlns="http://www.w3.org/2000/svg">
<path d="M0.381294 0.0333974C0.324014 0.055428 0.249111 0.108301 0.174207 0.183205C0.0816787 0.275733 0.0508361 0.3242 0.0243994 0.416728C-0.0593165 0.716343 0.0772727 1.02036 0.359263 1.14374C0.420949 1.17017 0.526695 1.1878 0.694127 1.20101C0.940869 1.21864 1.1083 1.25389 1.23608 1.31998C1.34623 1.37726 1.48723 1.54028 1.53569 1.66806C1.55772 1.72975 1.76922 2.74315 2.00715 3.91517C2.30235 5.39122 2.45216 6.1006 2.49622 6.21956C2.74296 6.8981 3.28932 7.36515 4.04717 7.5458C4.23663 7.58986 4.24545 7.58986 6.12685 7.58986H8.01707L8.12281 7.53699C8.52377 7.3255 8.99522 6.68221 9.66495 5.43087C9.94694 4.90655 10.3611 4.04736 10.392 3.9328C10.4228 3.80943 10.4052 3.65521 10.3391 3.52303C10.1717 3.17935 9.7002 3.09564 9.4094 3.35119C9.35212 3.40407 9.264 3.56269 9.01285 4.06058C8.53258 5.02111 8.1845 5.63796 7.88489 6.07857C7.79676 6.20635 7.70864 6.33412 7.68661 6.36056L7.64696 6.40462H6.05635C4.32916 6.40462 4.28951 6.40462 4.05158 6.29006C3.89296 6.21516 3.75196 6.07857 3.68146 5.92876C3.61097 5.78777 3.56691 5.57627 3.05139 2.9987C2.88396 2.15714 2.72534 1.4081 2.6945 1.32439C2.483 0.698719 2.01155 0.266921 1.35945 0.0906768C0.998148 -0.00185136 0.557538 -0.028288 0.381294 0.0333974Z" />
<path d="M5.80526 0.425703C5.56293 0.469764 5.37346 0.553479 5.34262 0.637195C5.31618 0.707693 5.21925 2.02512 5.21925 2.33354V2.39964H4.76102C4.26313 2.39964 4.19263 2.41285 4.13094 2.50979C4.06926 2.60232 4.08688 2.69484 4.18822 2.84465C4.45259 3.23239 5.00335 3.86687 5.55411 4.42644L5.89779 4.77453H5.99913H6.10047L6.45736 4.41322C6.99491 3.86687 7.53686 3.23239 7.79682 2.84465C7.90697 2.68163 7.92019 2.61554 7.86732 2.51419C7.81444 2.40845 7.74835 2.39523 7.24165 2.39523H6.78782L6.76139 1.9414C6.73495 1.41267 6.68208 0.769379 6.66005 0.668038C6.63801 0.55348 6.4838 0.47417 6.17978 0.425703C6.04319 0.403672 5.93744 0.403672 5.80526 0.425703Z" />
<path d="M3.95456 8.03054C3.74306 8.07901 3.4787 8.27287 3.35092 8.47556C3.24077 8.64739 3.20111 8.80601 3.20993 9.04835C3.21433 9.25544 3.21874 9.27306 3.30245 9.43609C3.4787 9.78857 3.81356 10.0001 4.2013 10.0001C4.65953 10.0001 5.04727 9.69164 5.16624 9.23341C5.29842 8.73552 4.98999 8.20238 4.4877 8.04816C4.35111 8.0041 4.09555 7.99529 3.95456 8.03054Z" />
<path d="M7.5105 8.04342C7.17123 8.14916 6.9333 8.39591 6.83196 8.73518C6.76587 8.95548 6.80112 9.2595 6.91568 9.4754C6.98618 9.60758 7.18445 9.81026 7.31663 9.87636C7.60744 10.035 7.97755 10.035 8.26835 9.87636C8.40054 9.80586 8.60322 9.60758 8.66931 9.4754C8.82352 9.189 8.82793 8.8277 8.67371 8.52809C8.60322 8.39591 8.40054 8.18882 8.26835 8.11832C8.03923 8.00376 7.73962 7.97292 7.5105 8.04342Z" />
</svg>
