<svg width="118" height="123" viewBox="0 0 118 123" fill="none" xmlns="http://www.w3.org/2000/svg">
<path d="M57.35 116.3H7.46C5.48294 116.295 3.58821 115.508 2.19 114.11L2 113.87C0.73155 112.512 0.0179721 110.728 0 108.87L0 7.46C0.000773066 6.48075 0.194593 5.51126 0.570374 4.60699C0.946155 3.70271 1.49652 2.88139 2.19 2.19L2.42 2C3.7774 0.730713 5.56168 0.017 7.42 0L91.88 0C93.8569 0.00527878 95.7513 0.792936 97.1492 2.19081C98.5471 3.58869 99.3347 5.48311 99.34 7.46V56.86C97.2419 56.276 95.0973 55.8745 92.93 55.66V7.46C92.906 7.19434 92.7862 6.94646 92.5931 6.76251C92.3999 6.57855 92.1465 6.47104 91.88 6.46H7.46C7.22059 6.46139 6.98843 6.5423 6.8 6.69L6.72 6.77C6.5237 6.96652 6.41239 7.23224 6.41 7.51V108.84C6.40719 109.077 6.4887 109.307 6.64 109.49L6.73 109.57C6.82324 109.671 6.93616 109.751 7.06174 109.806C7.18732 109.861 7.32288 109.89 7.46 109.89H53.71C54.7134 112.139 55.9324 114.286 57.35 116.3ZM89 65.38C95.6527 65.3734 102.102 67.6741 107.248 71.8901C112.394 76.1061 115.919 81.9763 117.222 88.5003C118.525 95.0242 117.525 101.798 114.392 107.667C111.26 113.536 106.189 118.137 100.044 120.686C93.8985 123.235 87.0596 123.574 80.6927 121.645C74.3257 119.716 68.8248 115.639 65.1275 110.108C61.4302 104.577 59.7654 97.9355 60.4168 91.3147C61.0683 84.694 63.9956 78.504 68.7 73.8C71.3636 71.1304 74.5278 69.0125 78.0112 67.5677C81.4946 66.1228 85.2288 65.3794 89 65.38ZM105.26 77.87C101.497 74.1081 96.545 71.7676 91.2493 71.2472C85.9535 70.7268 80.6412 72.0587 76.2174 75.0161C71.7936 77.9735 68.5322 82.3733 66.9887 87.4658C65.4453 92.5583 65.7154 98.0284 67.753 102.944C69.7906 107.86 73.4697 111.917 78.1633 114.424C82.8569 116.931 88.2746 117.733 93.4934 116.694C98.7121 115.654 103.409 112.837 106.783 108.723C110.158 104.608 112.002 99.4513 112 94.13C112.005 91.11 111.413 88.1188 110.258 85.3284C109.103 82.5379 107.408 80.0032 105.27 77.87H105.26ZM42.71 83.37C41.8703 83.2158 41.1112 82.7722 40.5648 82.1163C40.0183 81.4604 39.7191 80.6337 39.7191 79.78C39.7191 78.9263 40.0183 78.0996 40.5648 77.4437C41.1112 76.7878 41.8703 76.3442 42.71 76.19H52.29C53.1297 76.3442 53.8888 76.7878 54.4352 77.4437C54.9817 78.0996 55.2809 78.9263 55.2809 79.78C55.2809 80.6337 54.9817 81.4604 54.4352 82.1163C53.8888 82.7722 53.1297 83.2158 52.29 83.37H42.71ZM20.71 74.09H29.71C29.874 74.0746 30.0393 74.0938 30.1954 74.1462C30.3515 74.1986 30.4949 74.283 30.6164 74.3942C30.738 74.5053 30.8348 74.6407 30.9009 74.7915C30.967 74.9423 31.0007 75.1053 31 75.27V84.27C31 84.583 30.8757 84.8831 30.6544 85.1044C30.4331 85.3257 30.133 85.45 29.82 85.45H20.82C20.507 85.45 20.2069 85.3257 19.9856 85.1044C19.7643 84.8831 19.64 84.583 19.64 84.27V75.27C19.64 75.115 19.6705 74.9616 19.7298 74.8184C19.7891 74.6753 19.876 74.5452 19.9856 74.4356C20.0952 74.326 20.2253 74.2391 20.3684 74.1798C20.5116 74.1205 20.665 74.09 20.82 74.09H20.71ZM20.71 22.15H29.71C29.874 22.1346 30.0393 22.1538 30.1954 22.2062C30.3515 22.2586 30.4949 22.343 30.6164 22.4542C30.738 22.5653 30.8348 22.7007 30.9009 22.8515C30.967 23.0023 31.0007 23.1653 31 23.33V32.33C31 32.643 30.8757 32.9431 30.6544 33.1644C30.4331 33.3857 30.133 33.51 29.82 33.51H20.82C20.507 33.51 20.2069 33.3857 19.9856 33.1644C19.7643 32.9431 19.64 32.643 19.64 32.33V23.33C19.64 23.017 19.7643 22.7169 19.9856 22.4956C20.2069 22.2743 20.507 22.15 20.82 22.15H20.71ZM42.71 31.42C41.8403 31.3362 41.0383 30.9139 40.4771 30.2442C39.9159 29.5745 39.6404 28.711 39.71 27.84C39.6403 26.9679 39.9154 26.1033 40.4764 25.432C41.0374 24.7607 41.8394 24.3363 42.71 24.25H78.25C79.1206 24.3363 79.9226 24.7607 80.4836 25.432C81.0445 26.1033 81.3197 26.9679 81.25 27.84C81.3196 28.711 81.0441 29.5745 80.4829 30.2442C79.9217 30.9139 79.1197 31.3362 78.25 31.42H42.71ZM42.74 56.79C41.8694 56.7037 41.0674 56.2793 40.5064 55.608C39.9455 54.9367 39.6703 54.0721 39.74 53.2C39.6703 52.3279 39.9455 51.4633 40.5064 50.792C41.0674 50.1207 41.8694 49.6963 42.74 49.61H78.25C79.1206 49.6963 79.9226 50.1207 80.4836 50.792C81.0445 51.4633 81.3197 52.3279 81.25 53.2C81.3197 54.0721 81.0445 54.9367 80.4836 55.608C79.9226 56.2793 79.1206 56.7037 78.25 56.79H42.74Z" />
<path d="M29.7101 48.14H20.8201C20.5072 48.14 20.207 48.2643 19.9858 48.4856C19.7645 48.7069 19.6401 49.007 19.6401 49.32V58.32C19.6401 58.633 19.7645 58.9331 19.9858 59.1544C20.207 59.3757 20.5072 59.5 20.8201 59.5H29.8201C30.1331 59.5 30.4332 59.3757 30.6545 59.1544C30.8758 58.9331 31.0001 58.633 31.0001 58.32V49.32C31.0009 49.1553 30.9671 48.9923 30.901 48.8415C30.835 48.6907 30.7381 48.5553 30.6166 48.4442C30.4951 48.333 30.3517 48.2486 30.1956 48.1962C30.0394 48.1438 29.8741 48.1246 29.7101 48.14Z" />
<path fill-rule="evenodd" clip-rule="evenodd" d="M82.7555 88.4075L87.4657 93.5239L95.67 84.1244C96.5264 83.1554 96.9889 82.4383 97.9908 83.6011L101.219 87.3512C102.29 88.5431 102.23 89.2408 101.219 90.3358L89.3498 103.505C87.2345 105.84 87.637 105.985 85.4618 103.582L77.3089 94.4154C77.2048 94.3093 77.1231 94.1781 77.0699 94.0315C77.0167 93.8849 76.9934 93.7266 77.0016 93.5684C77.0098 93.4102 77.0494 93.2561 77.1174 93.1175C77.1854 92.979 77.2801 92.8595 77.3945 92.768L81.1541 88.359C81.7107 87.7001 82.1646 87.7388 82.7555 88.359V88.4075Z" />
</svg>
