<svg width="90" height="72" viewBox="0 0 90 72" fill="none" xmlns="http://www.w3.org/2000/svg">
<path d="M21.1406 54.6094C20.1594 54.6109 19.2008 54.9034 18.3858 55.4498C17.5708 55.9962 16.9362 56.772 16.5621 57.6791C16.1881 58.5861 16.0914 59.5838 16.2844 60.5458C16.4773 61.5078 16.9512 62.391 17.6461 63.0837C18.3409 63.7764 19.2256 64.2475 20.1883 64.4374C21.1509 64.6273 22.1482 64.5275 23.0541 64.1506C23.96 63.7737 24.7338 63.1366 25.2776 62.32C25.8215 61.5033 26.1109 60.5437 26.1094 59.5625C26.1052 58.2474 25.5799 56.9876 24.6485 56.0592C23.7172 55.1307 22.4557 54.6094 21.1406 54.6094ZM21.1406 61.4063C20.7782 61.4047 20.4243 61.2959 20.1236 61.0936C19.8229 60.8913 19.5888 60.6044 19.4508 60.2693C19.3128 59.9341 19.2771 59.5656 19.3482 59.2102C19.4193 58.8548 19.594 58.5284 19.8502 58.2721C20.1065 58.0158 20.4329 57.8411 20.7884 57.7701C21.1438 57.699 21.5123 57.7347 21.8474 57.8727C22.1826 58.0106 22.4694 58.2447 22.6717 58.5455C22.874 58.8462 22.9828 59.2001 22.9844 59.5625C22.9852 59.8049 22.9381 60.045 22.8457 60.2691C22.7533 60.4931 22.6176 60.6967 22.4462 60.8681C22.2748 61.0394 22.0712 61.1752 21.8472 61.2676C21.6231 61.36 21.383 61.4071 21.1406 61.4063Z" />
<path d="M70.5156 54.6094C69.5344 54.6109 68.5758 54.9034 67.7608 55.4498C66.9458 55.9962 66.3112 56.772 65.9371 57.6791C65.5631 58.5861 65.4664 59.5838 65.6594 60.5458C65.8523 61.5078 66.3262 62.391 67.0211 63.0837C67.7159 63.7764 68.6006 64.2475 69.5633 64.4374C70.5259 64.6273 71.5232 64.5275 72.4291 64.1506C73.335 63.7737 74.1088 63.1366 74.6526 62.32C75.1965 61.5033 75.4859 60.5437 75.4844 59.5625C75.4802 58.2474 74.9549 56.9876 74.0235 56.0592C73.0922 55.1307 71.8307 54.6094 70.5156 54.6094ZM70.5156 61.4063C70.1532 61.4047 69.7993 61.2959 69.4986 61.0936C69.1979 60.8913 68.9638 60.6044 68.8258 60.2693C68.6878 59.9341 68.6521 59.5656 68.7232 59.2102C68.7943 58.8548 68.969 58.5284 69.2252 58.2721C69.4815 58.0158 69.808 57.8411 70.1634 57.7701C70.5188 57.699 70.8873 57.7347 71.2224 57.8727C71.5576 58.0106 71.8444 58.2447 72.0467 58.5455C72.249 58.8462 72.3578 59.2001 72.3594 59.5625C72.3602 59.8049 72.3131 60.045 72.2207 60.2691C72.1283 60.4931 71.9926 60.6967 71.8212 60.8681C71.6498 61.0394 71.4462 61.1752 71.2222 61.2676C70.9981 61.36 70.758 61.4071 70.5156 61.4063Z" />
<path d="M75.0312 24.3125L68.6094 17.5156C68.4633 17.359 68.2868 17.2339 68.0906 17.148C67.8945 17.062 67.6829 17.017 67.4687 17.0156H60.2812C59.8668 17.0156 59.4694 17.1802 59.1764 17.4733C58.8834 17.7663 58.7188 18.1637 58.7188 18.5781V28.7969C58.7188 29.2113 58.8834 29.6087 59.1764 29.9017C59.4694 30.1948 59.8668 30.3594 60.2812 30.3594H73.8906C74.305 30.3594 74.7025 30.1948 74.9955 29.9017C75.2885 29.6087 75.4531 29.2113 75.4531 28.7969V25.3906C75.4511 24.9914 75.3007 24.6071 75.0312 24.3125ZM72.3281 27.2344H61.8438V20.1406H66.7969L72.3281 26V27.2344Z" />
<path d="M88.3125 30.7187L72.1875 11.3906C71.8816 11.0236 71.4996 10.7273 71.0679 10.5223C70.6363 10.3172 70.1653 10.2084 69.6875 10.2031H55.1719C54.307 10.2072 53.4788 10.5526 52.8673 11.1641C52.2557 11.7757 51.9104 12.6039 51.9063 13.4688V34.0313H49.9375V18.5781C49.9375 18.1637 49.7729 17.7663 49.4799 17.4733C49.1868 17.1802 48.7894 17.0156 48.375 17.0156H38.0156V1.5625C38.0156 1.1481 37.851 0.750672 37.558 0.457646C37.265 0.16462 36.8675 0 36.4531 0H19.4375C19.0231 0 18.6257 0.16462 18.3326 0.457646C18.0396 0.750672 17.875 1.1481 17.875 1.5625V17.0156H7.53125C7.11685 17.0156 6.71942 17.1802 6.4264 17.4733C6.13337 17.7663 5.96875 18.1637 5.96875 18.5781V34.0313H1.5625C1.1481 34.0313 0.750671 34.1959 0.457646 34.4889C0.16462 34.7819 0 35.1794 0 35.5938V52.6094C0 53.0238 0.16462 53.4212 0.457646 53.7142C0.750671 54.0073 1.1481 54.1719 1.5625 54.1719H10.6875C9.86936 55.7562 9.42176 57.5056 9.37847 59.2881C9.33519 61.0707 9.69735 62.8398 10.4376 64.4619C11.1779 66.084 12.2769 67.5169 13.6518 68.6522C15.0267 69.7876 16.6415 70.5958 18.3744 71.0159C20.1073 71.436 21.9129 71.4571 23.6551 71.0775C25.3973 70.6978 27.0305 69.9274 28.4315 68.8244C29.8324 67.7214 30.9646 66.3146 31.7425 64.7102C32.5203 63.1057 32.9236 61.3456 32.9219 59.5625C32.9197 57.6849 32.4641 55.8356 31.5937 54.1719H60.0625C59.2434 55.7552 58.7948 57.504 58.7505 59.2861C58.7062 61.0682 59.0674 62.8371 59.8068 64.4592C60.5462 66.0813 61.6445 67.5142 63.0187 68.6497C64.393 69.7852 66.0072 70.5936 67.7397 71.0139C69.4721 71.4342 71.2773 71.4554 73.0191 71.0759C74.7609 70.6964 76.3937 69.9261 77.7943 68.8232C79.1948 67.7203 80.3264 66.3136 81.1037 64.7094C81.881 63.1051 82.2837 61.3452 82.2812 59.5625C82.2844 57.6861 81.8341 55.8368 80.9687 54.1719H87.5C87.9144 54.1719 88.3118 54.0073 88.6049 53.7142C88.8979 53.4212 89.0625 53.0238 89.0625 52.6094V32.8125C89.0615 32.049 88.7966 31.3092 88.3125 30.7187ZM46.8125 20.1406V34.0313H32.9219V20.1406H46.8125ZM21 3.125H34.8906V17.0156H21V3.125ZM29.7969 20.1406V34.0313H26.1094V20.1406H29.7969ZM9.09375 20.1406H22.9844V34.0313H9.09375V20.1406ZM21.1406 68.2188C19.4672 68.2216 17.8291 67.7377 16.4258 66.826C15.0226 65.9143 13.9148 64.6141 13.2374 63.0839C12.5601 61.5537 12.3425 59.8595 12.611 58.2078C12.8796 56.556 13.6228 55.0181 14.75 53.7812C14.8111 53.7168 14.8685 53.649 14.9219 53.5781C15.9129 52.5485 17.1438 51.7805 18.5044 51.3431C19.8649 50.9056 21.3127 50.8123 22.7181 51.0714C24.1236 51.3305 25.4429 51.934 26.558 52.8279C27.6731 53.7218 28.5492 54.8781 29.1079 56.1935C29.6666 57.5089 29.8905 58.9423 29.7596 60.3654C29.6287 61.7886 29.147 63.157 28.3577 64.3484C27.5683 65.5398 26.4959 66.5169 25.2365 67.1923C23.977 67.8677 22.5698 68.2204 21.1406 68.2188ZM51.9063 51.0469H29.25C27.069 48.9601 24.1669 47.7953 21.1484 47.7953C18.1299 47.7953 15.2279 48.9601 13.0469 51.0469H3.125V37.1563H51.9063V51.0469ZM70.5156 68.2188C68.8051 68.2203 67.1326 67.7146 65.7095 66.7656C64.2864 65.8166 63.1767 64.4668 62.5207 62.8871C61.8647 61.3074 61.6918 59.5687 62.024 57.8907C62.3562 56.2128 63.1785 54.6711 64.3869 53.4605C65.5953 52.2499 67.1356 51.4248 68.8129 51.0896C70.4903 50.7544 72.2293 50.9241 73.8102 51.5772C75.3911 52.2304 76.7428 53.3376 77.6944 54.759C78.646 56.1804 79.1547 57.852 79.1562 59.5625C79.1575 61.856 78.248 64.0561 76.6278 65.6792C75.0075 67.3024 72.8091 68.2159 70.5156 68.2188ZM85.9375 44.25H82.25V40.5625H85.9375V44.25ZM85.9375 37.4375H82.25C81.422 37.44 80.6285 37.77 80.043 38.3555C79.4575 38.941 79.1275 39.7345 79.125 40.5625V44.25C79.1275 45.078 79.4575 45.8715 80.043 46.457C80.6285 47.0425 81.422 47.3725 82.25 47.375H85.9375V51.0469H78.6094C76.431 48.9611 73.5315 47.7968 70.5156 47.7968C67.4997 47.7968 64.6002 48.9611 62.4219 51.0469H55.0313V13.4688C55.0347 13.4326 55.0506 13.3988 55.0763 13.3732C55.102 13.3475 55.1358 13.3316 55.1719 13.3281L69.7812 13.3906L85.9375 32.8125V37.4375Z" />
</svg>
