<svg width="414" height="251" viewBox="0 0 414 251" fill="none" xmlns="http://www.w3.org/2000/svg">
<path fill-rule="evenodd" clip-rule="evenodd" d="M317.528 62.9876L257.062 62.6513V21.9599C257.062 15.9066 254.607 10.4251 250.605 6.45682C246.637 2.45494 241.156 0 235.102 0H67.4939C61.4407 0 55.9591 2.45494 51.9909 6.45682C48.0226 10.4251 45.534 15.9066 45.534 21.9599C45.534 25.2556 48.1907 27.9123 51.4864 27.9123C54.7821 27.9123 57.4388 25.2556 57.4388 21.9599C57.4388 19.2023 58.5822 16.6801 60.3982 14.8641C62.2142 13.0482 64.7363 11.9048 67.4939 11.9048H235.102C237.86 11.9048 240.382 13.0482 242.198 14.8641C244.014 16.6801 245.157 19.2023 245.157 21.9599V208.3H211.595C208.3 208.3 205.643 210.956 205.643 214.252C205.643 217.548 208.3 220.204 211.595 220.204H251.11C254.405 220.204 257.062 217.548 257.062 214.252V207.493H292.978C295.702 145.547 384.652 137.006 393.698 207.493H413.236L407.217 142.857L343.086 118.308L317.528 62.9876ZM8.91176 126.244C3.96825 126.244 0 123.554 0 120.258C0 116.963 4.00188 114.272 8.91176 114.272H89.2521C94.1956 114.272 98.1638 116.963 98.1638 120.258C98.1638 123.554 94.162 126.244 89.2521 126.244H8.91176ZM27.307 94.0274C23.6077 94.0274 20.6147 91.3707 20.6147 88.0751C20.6147 84.7794 23.6077 82.1227 27.307 82.1227H89.2857C92.9849 82.1227 95.9779 84.7794 95.9779 88.0751C95.9779 91.3707 92.9849 94.0274 89.2857 94.0274H27.307ZM35.8152 61.8106C32.116 61.8106 29.1229 59.1539 29.1229 55.8582C29.1229 52.5626 32.116 49.9058 35.8152 49.9058H89.2521C92.9513 49.9058 95.9443 52.5626 95.9443 55.8582C95.9443 59.1539 92.9513 61.8106 89.2521 61.8106H35.8152ZM88.9831 208.266C92.2787 208.266 94.9354 210.923 94.9354 214.218C94.9354 217.514 92.2787 220.171 88.9831 220.171H67.4939C61.4743 220.171 55.9927 217.548 51.9909 213.411C48.0226 209.275 45.534 203.625 45.534 197.639V153.921C45.534 150.626 48.1907 147.969 51.4864 147.969C54.7821 147.969 57.4388 150.626 57.4388 153.921V197.639C57.4388 200.498 58.6158 203.222 60.5327 205.206C62.3487 207.089 64.8036 208.3 67.4603 208.3H88.9831V208.266ZM149.516 169.391C127.253 169.391 109.194 187.45 109.194 209.712C109.194 231.975 127.253 250.034 149.516 250.034C171.778 250.034 189.837 231.975 189.837 209.712C189.804 187.45 171.778 169.391 149.516 169.391ZM149.516 194.209C140.974 194.209 134.013 201.137 134.013 209.712C134.013 218.254 140.94 225.215 149.516 225.215C158.058 225.215 165.019 218.288 165.019 209.712C164.985 201.137 158.058 194.209 149.516 194.209ZM343.22 169.391C320.958 169.391 302.899 187.45 302.899 209.712C302.899 231.975 320.958 250.034 343.22 250.034C365.483 250.034 383.542 231.975 383.542 209.712C383.542 187.45 365.483 169.391 343.22 169.391ZM343.22 194.209C334.679 194.209 327.717 201.137 327.717 209.712C327.717 218.254 334.645 225.215 343.22 225.215C351.796 225.215 358.723 218.288 358.723 209.712C358.723 201.137 351.796 194.209 343.22 194.209ZM301.957 80.0713L271.926 79.735V118.375H322.269L301.957 80.0713Z" />
</svg>
