<svg width="248" height="250" viewBox="0 0 248 250" fill="none" xmlns="http://www.w3.org/2000/svg">
<path fill-rule="evenodd" clip-rule="evenodd" d="M101.504 53.0756L211.085 25.7109C214.177 24.9377 217.351 26.8502 218.124 29.9427L245.489 139.524C246.262 142.616 244.35 145.79 241.257 146.563L131.696 173.928C128.604 174.701 125.43 172.789 124.657 169.696L97.2719 60.1151C96.4987 57.0226 98.4112 53.8487 101.504 53.0756ZM111.025 184.203C129.194 184.203 143.924 198.933 143.924 217.101C143.924 235.27 129.194 250 111.025 250C92.8569 250 78.1267 235.27 78.1267 217.101C78.1267 198.933 92.8569 184.203 111.025 184.203ZM150.516 188.577L235.703 165.749L240.81 164.386L242.173 169.493L245.835 183.165L247.198 188.272L242.091 189.635L156.905 212.463L151.798 213.826L150.435 208.719L146.773 195.047L145.409 189.94L150.516 188.577ZM8.52463 0.0754808L25.4928 3.02558C44.9838 6.42329 54.8107 8.37646 61.1789 13.4425C68.0353 18.8951 69.5816 26.2195 72.552 40.4207C73.1014 43.0046 73.6914 45.8936 74.5052 49.3727C75.2376 52.5873 76.1735 56.3512 77.3943 60.8476L107.648 172.077C108.421 174.905 106.753 177.794 103.925 178.567C103.843 178.587 103.762 178.608 103.681 178.628L90.2323 182.27C87.4246 183.023 84.5152 181.354 83.7624 178.547L70.0088 127.988L53.5086 67.3175C52.3693 63.0856 51.3723 59.0165 50.5178 55.2322L50.4771 54.9881C49.643 51.3259 48.9919 48.213 48.4019 45.4257C46.9167 38.3658 46.1639 34.7036 43.8648 33.0556C40.874 30.8786 34.3635 29.6579 21.3627 27.3792L14.7911 26.2398L4.39449 24.4291C1.50543 23.9408 -0.4274 21.2145 0.0812387 18.3254L2.46167 4.36839C2.90927 1.52001 5.63557 -0.412812 8.52463 0.0754808Z" />
</svg>
