<svg width="200" height="124" viewBox="0 0 200 124" fill="none" xmlns="http://www.w3.org/2000/svg">
<path fill-rule="evenodd" clip-rule="evenodd" d="M48.5514 102.186V42.0788H75.5859C87.0443 44.1296 98.5026 50.347 109.961 57.5573H130.957C140.462 58.127 145.443 67.7624 136.198 74.0938C128.841 79.4974 119.124 79.1882 109.163 78.293C102.295 77.9512 102.002 87.1797 109.163 87.2122C111.654 87.4075 114.355 86.8216 116.715 86.8216C129.134 86.8053 139.372 84.429 145.638 74.6146L148.779 67.2741L180.013 51.7956C195.638 46.6523 206.755 62.9935 195.231 74.3704C172.607 90.8255 149.414 104.367 125.684 115.305C108.447 125.786 91.2109 125.428 73.9909 115.305L48.5514 102.186ZM137.399 8.83789L137.074 12.5326L123.125 11.3118C124.281 12.7767 125.062 14.4531 125.518 16.3249L122.165 16.0319C121.937 15.0391 121.416 13.9323 120.651 12.7441C119.87 11.5234 118.91 10.6771 117.754 10.1562L118.014 7.16146L137.399 8.83789ZM127.129 3.04362C140.02 3.04362 150.485 7.14518 150.485 12.207C150.485 17.2689 140.02 21.3704 127.129 21.3704C114.238 21.3704 103.789 17.2526 103.789 12.1908C103.789 7.12891 114.238 3.04362 127.129 3.04362ZM127.129 0C142.819 0 155.547 6.67318 155.547 14.8926C155.547 23.112 142.819 29.7852 127.129 29.7852C111.439 29.7852 98.711 23.112 98.711 14.8926C98.711 6.67318 111.455 0 127.129 0ZM154.082 22.9707C155.026 24.4681 155.547 26.0469 155.547 27.707C155.547 35.9427 142.819 42.5996 127.129 42.5996C111.439 42.5996 98.711 35.9264 98.711 27.707C98.711 26.0469 99.2318 24.4681 100.176 22.9707C103.952 28.8626 114.596 33.127 127.113 33.127C139.629 33.127 150.306 28.8789 154.082 22.9707ZM0 36.3008H40.4134V108.208H0V36.3008Z"/>
</svg>
