<svg width="93" height="123" viewBox="0 0 93 123" fill="none" xmlns="http://www.w3.org/2000/svg">
<path d="M47.4853 116.851C53.7953 112.841 59.4653 107.981 64.4053 102.561C75.1353 90.8109 82.3753 76.4509 85.2753 62.3609C88.1553 48.4509 86.7953 34.8209 80.4253 24.3009C78.6153 21.2809 76.3453 18.5209 73.6453 16.0409C65.9053 8.99091 57.0453 5.63091 48.1253 5.54091C38.7553 5.47091 29.2553 8.99091 20.8553 15.6809C17.2753 18.5409 14.3253 21.8309 12.0353 25.4609C6.13528 34.7409 4.34528 46.2609 6.29528 58.3109C8.26528 70.5409 14.0753 83.3309 23.3353 94.9209C29.7753 103.001 37.8753 110.501 47.5153 116.831L47.4853 116.851ZM46.1253 21.1609C53.1753 21.1609 59.5753 24.0209 64.1853 28.6509C68.8153 33.2809 71.6753 39.6509 71.6753 46.7109C71.6753 53.7609 68.8153 60.1609 64.1853 64.7709C59.5553 69.4009 53.1853 72.2609 46.1253 72.2609C39.0753 72.2609 32.6753 69.4009 28.0653 64.7709C23.4353 60.1409 20.5753 53.7709 20.5753 46.7109C20.5753 39.6609 23.4353 33.2609 28.0653 28.6509C32.6953 24.0209 39.0653 21.1609 46.1253 21.1609ZM60.5053 32.3309C56.8353 28.6609 51.7253 26.3609 46.1253 26.3609C40.4953 26.3609 35.4153 28.6309 31.7453 32.3309C28.0753 36.0009 25.7753 41.1109 25.7753 46.7109C25.7753 52.3409 28.0453 57.4209 31.7453 61.0909C35.4153 64.7609 40.5253 67.0609 46.1253 67.0609C51.7553 67.0609 56.8353 64.7909 60.5053 61.0909C64.1753 57.4209 66.4753 52.3109 66.4753 46.7109C66.4653 41.0809 64.2053 36.0009 60.5053 32.3309ZM68.5153 106.271C62.9153 112.391 56.4253 117.881 49.0953 122.331C48.2153 122.991 46.9653 123.081 45.9653 122.441C35.1653 115.571 26.1153 107.311 18.9753 98.3509C9.14528 86.0209 2.93528 72.3409 0.82528 59.1609C-1.32472 45.8009 0.68528 32.9609 7.33528 22.4809C9.96528 18.3509 13.3053 14.5909 17.4053 11.3409C26.7753 3.88091 37.5053 -0.0690855 48.1653 0.000914516C58.4453 0.0909145 68.5853 3.90092 77.3853 11.9309C80.4753 14.7409 83.0553 17.9209 85.1653 21.4109C92.3153 33.1809 93.8553 48.2209 90.7253 63.4209C87.6153 78.4609 79.9253 93.7509 68.5453 106.221L68.5153 106.271Z" />
</svg>
