<svg width="394" height="394" viewBox="0 0 394 394" fill="none" xmlns="http://www.w3.org/2000/svg">
<path d="M78.7 0H314.8C358.3 0 393.5 35.2 393.5 78.7V314.8C393.5 358.3 358.3 393.5 314.8 393.5H78.7C35.2 393.5 0 358.3 0 314.8V78.7C0 35.3 35.2 0 78.7 0Z" fill="#B3B3B3"/>
<g opacity="0.15">
<path d="M295.77 179.251C299.156 179.89 302.382 181.196 305.258 183.094C308.135 184.991 310.605 187.443 312.524 190.304C315.718 195.057 317.225 200.743 316.806 206.454C316.348 212.092 314.05 217.423 310.266 221.627C306.482 225.832 301.422 228.676 295.863 229.724C309.267 233.307 316.806 241.824 316.806 256.019C316.647 261.968 314.405 267.671 310.472 272.137C306.538 276.602 301.162 279.545 295.281 280.453C298.826 281.002 302.214 282.295 305.222 284.249C308.23 286.202 310.79 288.771 312.734 291.785C314.745 294.742 316.088 298.101 316.671 301.629C317.254 305.157 317.062 308.77 316.108 312.216C314.95 316.681 312.608 320.751 309.328 323.994C306.048 327.237 301.953 329.534 297.475 330.641C292.998 331.749 288.304 331.625 283.89 330.285C279.477 328.944 275.508 326.436 272.402 323.025C269.297 319.614 267.171 315.428 266.249 310.908C265.327 306.389 265.644 301.704 267.166 297.349C268.687 292.995 271.357 289.133 274.893 286.171C278.429 283.209 282.699 281.257 287.253 280.522C273.756 277.032 265.938 268.631 265.821 254.344C265.972 248.401 268.186 242.696 272.084 238.208C275.982 233.72 281.321 230.729 287.183 229.747C280.98 228.718 275.369 225.454 271.407 220.571C267.446 215.689 265.409 209.524 265.682 203.243C266.009 197.41 268.293 191.857 272.165 187.483C276.037 183.109 281.27 180.167 287.02 179.135C283.633 178.553 280.398 177.295 277.508 175.436C274.617 173.577 272.13 171.155 270.196 168.314C267.198 164.012 265.634 158.874 265.728 153.631C265.81 147.626 267.984 141.837 271.874 137.263C275.765 132.688 281.13 129.614 287.044 128.569C283.478 127.972 280.079 126.627 277.071 124.621C274.063 122.616 271.514 119.996 269.591 116.934C267.646 113.933 266.373 110.548 265.859 107.009C265.345 103.471 265.602 99.863 266.613 96.433C268.242 90.8428 271.729 85.9752 276.498 82.6338C281.267 79.2924 287.033 77.6768 292.843 78.0537C298.654 78.4306 304.163 80.7775 308.46 84.7069C312.757 88.6364 315.586 93.9136 316.48 99.6676C316.99 102.924 316.841 106.25 316.042 109.448C315.242 112.645 313.809 115.65 311.826 118.284C307.944 123.683 302.093 127.336 295.537 128.453C309.616 132.455 317.155 141.367 316.48 156.377C316.393 160.068 315.376 163.677 313.525 166.871C311.646 170.083 309.089 172.847 306.032 174.969C302.93 177.064 299.441 178.52 295.77 179.251Z" fill="white"/>
<path d="M225.866 176.621C221.436 176.598 217.112 175.26 213.442 172.778C209.772 170.296 206.922 166.781 205.251 162.678C203.58 158.575 203.164 154.068 204.056 149.728C204.948 145.388 207.108 141.411 210.262 138.3C213.416 135.188 217.422 133.082 221.773 132.249C226.125 131.416 230.625 131.893 234.706 133.619C238.786 135.345 242.262 138.243 244.694 141.946C247.127 145.649 248.405 149.991 248.368 154.421C248.325 160.348 245.931 166.016 241.712 170.178C237.493 174.341 231.793 176.658 225.866 176.621Z" fill="white"/>
<path d="M225.843 227.233C221.423 227.201 217.112 225.86 213.454 223.379C209.796 220.898 206.955 217.389 205.291 213.295C203.626 209.2 203.212 204.704 204.1 200.375C204.989 196.045 207.141 192.076 210.284 188.969C213.427 185.861 217.421 183.755 221.76 182.916C226.1 182.076 230.59 182.542 234.666 184.253C238.741 185.965 242.217 188.846 244.656 192.532C247.095 196.218 248.387 200.544 248.368 204.964C248.356 207.906 247.763 210.818 246.624 213.531C245.484 216.244 243.821 218.705 241.728 220.774C239.636 222.843 237.155 224.478 234.429 225.587C231.703 226.695 228.786 227.255 225.843 227.233Z" fill="white"/>
<path d="M225.983 277.89C221.552 277.885 217.223 276.564 213.544 274.095C209.865 271.626 207.003 268.119 205.32 264.02C203.637 259.921 203.21 255.415 204.093 251.073C204.975 246.731 207.128 242.749 210.277 239.632C213.427 236.516 217.431 234.405 221.782 233.568C226.133 232.731 230.634 233.205 234.715 234.93C238.796 236.656 242.273 239.555 244.704 243.259C247.135 246.963 248.41 251.306 248.369 255.737C248.307 261.634 245.922 267.268 241.73 271.416C237.539 275.564 231.88 277.89 225.983 277.89Z" fill="white"/>
<path d="M225.867 328.574C221.442 328.546 217.125 327.206 213.462 324.724C209.799 322.242 206.955 318.728 205.289 314.629C203.624 310.53 203.212 306.028 204.105 301.695C204.999 297.361 207.159 293.39 210.31 290.284C213.462 287.178 217.464 285.077 221.81 284.247C226.156 283.416 230.651 283.894 234.726 285.619C238.8 287.344 242.272 290.239 244.7 293.938C247.129 297.637 248.406 301.973 248.369 306.397C248.307 312.316 245.907 317.971 241.691 322.126C237.475 326.281 231.786 328.599 225.867 328.574Z" fill="white"/>
<path d="M225.75 126.056C221.343 126.033 217.042 124.707 213.388 122.245C209.733 119.784 206.888 116.297 205.21 112.222C203.532 108.148 203.097 103.668 203.959 99.3469C204.821 95.0256 206.941 91.0558 210.054 87.9368C213.167 84.8178 217.132 82.689 221.451 81.8181C225.771 80.9472 230.251 81.3732 234.329 83.0425C238.407 84.7117 241.9 87.5497 244.37 91.1993C246.839 94.849 248.173 99.1473 248.205 103.554C248.227 106.511 247.661 109.443 246.541 112.179C245.421 114.916 243.768 117.403 241.679 119.497C239.59 121.59 237.107 123.247 234.372 124.373C231.638 125.499 228.707 126.071 225.75 126.056Z" fill="white"/>
<path d="M187.285 154C187.285 157.676 186.196 161.27 184.157 164.328C182.117 167.387 179.218 169.773 175.825 171.186C172.431 172.599 168.695 172.975 165.088 172.268C161.481 171.561 158.163 169.802 155.555 167.212C152.946 164.623 151.162 161.319 150.428 157.717C149.694 154.115 150.042 150.376 151.43 146.973C152.818 143.569 155.182 140.652 158.225 138.589C161.268 136.527 164.853 135.412 168.529 135.384C170.986 135.366 173.421 135.834 175.696 136.761C177.971 137.688 180.04 139.057 181.783 140.787C183.527 142.518 184.91 144.576 185.855 146.844C186.799 149.112 187.285 151.544 187.285 154Z" fill="white"/>
<path d="M168.553 122.074C164.871 122.074 161.271 120.982 158.21 118.937C155.149 116.891 152.763 113.984 151.354 110.582C149.945 107.18 149.576 103.437 150.294 99.826C151.013 96.2149 152.786 92.8978 155.389 90.2943C157.993 87.6908 161.31 85.9178 164.921 85.1995C168.532 84.4812 172.275 84.8499 175.677 86.2589C179.078 87.6679 181.986 90.0539 184.031 93.1153C186.077 96.1767 187.169 99.7759 187.169 103.458C187.169 108.395 185.207 113.13 181.716 116.621C178.225 120.113 173.49 122.074 168.553 122.074Z" fill="white"/>
<path d="M168.622 324.594C164.95 324.549 161.374 323.418 158.343 321.345C155.313 319.271 152.963 316.348 151.589 312.943C150.216 309.537 149.88 305.802 150.625 302.206C151.369 298.61 153.16 295.315 155.773 292.735C158.385 290.155 161.703 288.404 165.307 287.705C168.912 287.005 172.643 287.387 176.031 288.803C179.419 290.218 182.313 292.604 184.348 295.66C186.384 298.717 187.47 302.306 187.47 305.978C187.471 308.443 186.981 310.883 186.031 313.157C185.081 315.43 183.689 317.493 181.936 319.225C180.182 320.957 178.103 322.323 175.817 323.245C173.532 324.166 171.086 324.625 168.622 324.594Z" fill="white"/>
<path d="M187.308 255.319C187.267 258.984 186.144 262.555 184.082 265.584C182.02 268.614 179.109 270.968 175.715 272.35C172.32 273.732 168.594 274.082 165.001 273.355C161.409 272.628 158.111 270.857 155.522 268.264C152.932 265.671 151.165 262.371 150.442 258.778C149.72 255.185 150.074 251.459 151.461 248.066C152.847 244.673 155.204 241.766 158.237 239.707C161.269 237.648 164.841 236.531 168.506 236.494C170.984 236.469 173.442 236.939 175.736 237.876C178.03 238.814 180.114 240.2 181.865 241.953C183.616 243.707 185 245.792 185.934 248.087C186.869 250.382 187.336 252.841 187.308 255.319Z" fill="white"/>
<path d="M168.715 185.927C172.387 185.973 175.963 187.103 178.993 189.177C182.024 191.25 184.374 194.173 185.747 197.579C187.121 200.984 187.456 204.719 186.712 208.315C185.967 211.911 184.176 215.206 181.564 217.786C178.951 220.367 175.634 222.117 172.029 222.816C168.425 223.516 164.694 223.134 161.306 221.718C157.917 220.303 155.024 217.917 152.988 214.861C150.953 211.805 149.866 208.215 149.866 204.543C149.866 202.078 150.355 199.638 151.305 197.365C152.255 195.091 153.647 193.028 155.401 191.296C157.154 189.565 159.234 188.198 161.519 187.276C163.805 186.355 166.251 185.896 168.715 185.927Z" fill="white"/>
<path d="M133.973 306.165C133.973 308.948 133.149 311.669 131.606 313.985C130.062 316.301 127.868 318.108 125.299 319.179C122.731 320.251 119.903 320.538 117.171 320.005C114.439 319.472 111.927 318.143 109.949 316.185C107.971 314.226 106.618 311.727 106.058 309.001C105.498 306.274 105.757 303.444 106.803 300.865C107.849 298.285 109.635 296.074 111.936 294.507C114.236 292.941 116.949 292.091 119.732 292.063C121.593 292.051 123.439 292.406 125.164 293.109C126.888 293.812 128.457 294.848 129.78 296.158C131.103 297.468 132.154 299.026 132.874 300.743C133.593 302.461 133.967 304.303 133.973 306.165Z" fill="white"/>
<path d="M105.792 255.294C105.843 252.544 106.704 249.871 108.269 247.609C109.833 245.346 112.031 243.597 114.586 242.579C117.142 241.562 119.941 241.321 122.632 241.889C125.323 242.456 127.787 243.805 129.714 245.768C131.641 247.73 132.946 250.218 133.464 252.919C133.982 255.62 133.691 258.415 132.627 260.951C131.564 263.487 129.774 265.653 127.484 267.176C125.194 268.699 122.505 269.512 119.754 269.512C117.899 269.513 116.062 269.143 114.352 268.426C112.641 267.708 111.09 266.657 109.79 265.333C108.49 264.009 107.467 262.44 106.781 260.716C106.094 258.993 105.758 257.149 105.792 255.294Z" fill="white"/>
<path d="M133.786 103.574C133.786 106.336 132.968 109.035 131.433 111.331C129.899 113.627 127.719 115.417 125.167 116.474C122.616 117.53 119.809 117.807 117.1 117.268C114.392 116.729 111.904 115.4 109.952 113.447C107.999 111.494 106.669 109.007 106.131 106.298C105.592 103.59 105.868 100.783 106.925 98.2313C107.982 95.6801 109.771 93.4995 112.067 91.9653C114.363 90.4312 117.063 89.6123 119.824 89.6123C123.527 89.6123 127.079 91.0833 129.697 93.7017C132.315 96.3201 133.786 99.8714 133.786 103.574Z" fill="white"/>
<path d="M119.755 168.244C117.898 168.244 116.059 167.874 114.347 167.155C112.634 166.436 111.082 165.382 109.782 164.056C108.482 162.73 107.459 161.157 106.774 159.431C106.089 157.705 105.756 155.859 105.793 154.002C105.793 150.272 107.275 146.694 109.913 144.056C112.551 141.418 116.129 139.936 119.86 139.936C123.59 139.936 127.168 141.418 129.806 144.056C132.444 146.694 133.926 150.272 133.926 154.002C133.964 155.877 133.624 157.74 132.926 159.48C132.228 161.221 131.187 162.802 129.864 164.132C128.541 165.461 126.965 166.51 125.228 167.216C123.491 167.923 121.63 168.272 119.755 168.244Z" fill="white"/>
<path d="M105.77 204.779C105.77 201.061 107.247 197.495 109.876 194.865C112.505 192.236 116.071 190.759 119.79 190.759C123.508 190.759 127.074 192.236 129.704 194.865C132.333 197.495 133.81 201.061 133.81 204.779C133.774 208.471 132.291 212.001 129.68 214.611C127.07 217.222 123.54 218.705 119.848 218.741C118.005 218.756 116.177 218.407 114.469 217.712C112.762 217.017 111.209 215.991 109.9 214.693C108.591 213.395 107.552 211.851 106.843 210.149C106.134 208.447 105.769 206.622 105.77 204.779Z" fill="white"/>
<path d="M67.025 154.049C67.0466 151.142 68.2221 148.363 70.2928 146.323C72.3635 144.283 75.1598 143.149 78.0667 143.17C80.9735 143.192 83.7527 144.367 85.7928 146.438C87.833 148.509 88.967 151.305 88.9454 154.212C88.9091 157.111 87.7395 159.882 85.6869 161.93C83.6343 163.978 80.8616 165.142 77.9619 165.172C76.5099 165.172 75.0723 164.883 73.7331 164.322C72.3939 163.761 71.1799 162.939 70.1618 161.903C69.1437 160.868 68.3421 159.64 67.8035 158.292C67.2649 156.943 67.0003 155.501 67.025 154.049Z" fill="white"/>
<path d="M78.0313 244.383C79.4842 244.379 80.9232 244.666 82.2639 245.226C83.6045 245.786 84.8198 246.609 85.8385 247.645C86.8572 248.681 87.6588 249.91 88.1962 251.26C88.7336 252.609 88.9961 254.053 88.9682 255.506C88.895 258.417 87.6806 261.183 85.5868 263.207C83.4929 265.232 80.6875 266.352 77.7753 266.326C74.8967 266.259 72.1589 265.067 70.1492 263.005C68.1394 260.943 67.0177 258.176 67.0245 255.296C67.0182 253.854 67.2993 252.424 67.8514 251.091C68.4034 249.758 69.2155 248.548 70.24 247.532C71.2646 246.516 72.4812 245.715 73.8189 245.174C75.1566 244.633 76.5885 244.364 78.0313 244.383Z" fill="white"/>
<path d="M88.969 306.163C88.966 307.598 88.6788 309.018 88.1241 310.342C87.5693 311.665 86.7579 312.866 85.7368 313.874C84.7156 314.882 83.5049 315.678 82.1745 316.216C80.8441 316.753 79.4204 317.022 77.9855 317.007C75.8073 317.007 73.6783 316.359 71.8692 315.146C70.06 313.933 68.6525 312.209 67.8254 310.194C66.9984 308.179 66.7892 305.963 67.2244 303.829C67.6597 301.695 68.7197 299.738 70.2698 298.208C71.8198 296.677 73.7899 295.642 75.9296 295.234C78.0693 294.826 80.282 295.064 82.2863 295.917C84.2907 296.77 85.9963 298.199 87.1862 300.023C88.3761 301.848 88.9967 303.985 88.969 306.163Z" fill="white"/>
<path d="M88.8054 103.624C88.8067 105.094 88.5104 106.549 87.9342 107.902C87.358 109.254 86.514 110.476 85.4529 111.494C84.3918 112.511 83.1357 113.303 81.7602 113.822C80.3847 114.342 78.9184 114.577 77.4496 114.514C74.6039 114.328 71.942 113.043 70.0267 110.931C68.1114 108.818 67.0929 106.043 67.1866 103.193C67.2803 100.343 68.4788 97.6408 70.5288 95.6584C72.5787 93.676 75.3193 92.5685 78.171 92.5703C81.0411 92.6435 83.7668 93.8448 85.7574 95.9138C87.7479 97.9827 88.843 100.753 88.8054 103.624Z" fill="white"/>
<path d="M67.0016 204.731C66.9766 203.287 67.2413 201.854 67.7801 200.514C68.3188 199.175 69.1207 197.957 70.1382 196.933C71.1557 195.909 72.3682 195.1 73.704 194.553C75.0398 194.005 76.4718 193.731 77.9153 193.747C80.0905 193.733 82.2209 194.366 84.0363 195.564C85.8516 196.763 87.2703 198.473 88.1123 200.479C88.9543 202.485 89.1818 204.695 88.7659 206.83C88.3501 208.966 87.3095 210.929 85.7763 212.472C84.243 214.015 82.2861 215.068 80.1537 215.498C78.0212 215.927 75.8092 215.714 73.7982 214.885C71.7871 214.055 70.0676 212.648 68.8576 210.84C67.6476 209.032 67.0017 206.906 67.0016 204.731Z" fill="white"/>
</g>
<g clip-path="url(#clip0_1548_2669)">
<path fill-rule="evenodd" clip-rule="evenodd" d="M120.227 135.626C134.997 140.568 155.568 143.611 178.413 143.611C201.258 143.611 221.83 140.568 236.6 135.626C249.562 131.294 257.583 126.048 257.583 120.927C257.583 115.807 249.562 110.561 236.6 106.229C221.83 101.323 201.258 98.2435 178.431 98.2435C155.604 98.2435 135.015 101.323 120.227 106.229C92.7445 115.413 91.9746 126.191 120.227 135.626ZM304.724 303.921C304.724 303.67 304.724 303.455 304.724 303.222V178.971C304.724 178.738 304.724 178.488 304.724 178.273C304.578 177.52 304.21 176.827 303.667 176.285C303.316 175.93 302.898 175.647 302.437 175.454C301.976 175.26 301.482 175.159 300.982 175.158H229.26C228.251 175.167 227.287 175.572 226.574 176.285C225.86 176.998 225.456 177.963 225.446 178.971V303.169C225.444 303.669 225.543 304.165 225.737 304.626C225.931 305.088 226.215 305.505 226.574 305.854C226.918 306.22 227.334 306.509 227.797 306.704C228.26 306.898 228.758 306.993 229.26 306.982H301.053C301.553 306.98 302.048 306.88 302.509 306.686C302.97 306.492 303.388 306.21 303.739 305.854C304.267 305.297 304.627 304.602 304.777 303.849L304.724 303.921ZM275.236 277.065C274.866 279.66 273.609 282.047 271.679 283.821C269.749 285.595 267.264 286.645 264.647 286.795C262.03 286.945 259.442 286.184 257.322 284.642C255.202 283.1 253.681 280.872 253.018 278.336L265.157 270.817L275.236 277.065ZM290.669 196.928V206.471H239.59V196.928H290.669ZM290.669 223.318V232.861H265.497L265.246 232.02L264.924 232.807H239.59V223.318H290.669ZM99.3688 174.244C100.389 179.025 108.177 183.841 120.244 187.869C135.015 192.811 155.586 195.854 178.431 195.854C186.398 195.854 194.097 195.478 201.366 194.78V206.095C194.061 206.775 186.363 207.133 178.449 207.133C154.458 207.133 132.634 203.857 116.717 198.54C110.604 196.613 104.78 193.867 99.4046 190.376V224.088C100.425 228.868 108.213 233.685 120.28 237.713C135.051 242.636 155.622 245.698 178.467 245.698C186.416 245.698 194.115 245.322 201.366 244.642V255.903C194.043 256.565 186.345 256.924 178.431 256.924C154.44 256.924 132.616 253.647 116.7 248.312C110.587 246.391 104.763 243.651 99.3867 240.166V273.878C100.407 278.659 108.195 283.475 120.262 287.503C135.033 292.426 155.604 295.488 178.449 295.488C186.416 295.488 194.115 295.112 201.366 294.414V303.169C201.366 304.01 201.366 304.852 201.491 305.693C194.133 306.373 186.398 306.731 178.449 306.731C154.458 306.731 132.634 303.455 116.717 298.12C108.321 295.327 88.0716 286.124 88.0716 275.114V271.533C88.0239 221.319 88 171.147 88 121.017C88 110.418 98.957 101.52 116.646 95.5938C132.598 90.2764 154.44 87 178.431 87C202.422 87 224.229 90.2764 240.181 95.6117C256.133 100.947 266.84 108.86 268.612 118.152C268.831 118.761 268.94 119.403 268.934 120.05V151.077H257.637V137.99C252.221 141.522 246.348 144.299 240.181 146.243C224.265 151.614 202.44 154.855 178.467 154.855C154.494 154.855 132.616 151.578 116.646 146.243C110.533 144.322 104.709 141.582 99.333 138.097V174.244H99.3688Z" fill="white"/>
</g>
<defs>
<clipPath id="clip0_1548_2669">
<rect width="216.742" height="220" fill="white" transform="translate(88 87)"/>
</clipPath>
</defs>
</svg>
