<svg width="40" height="40" viewBox="0 0 40 40" fill="none" xmlns="http://www.w3.org/2000/svg">
<circle cx="20" cy="20" r="20" fill="#71D1F0"/>
<path d="M19.6496 9.01296C18.4881 9.18949 17.5583 9.64868 16.8167 10.4097C14.3879 12.905 15.4043 17.0601 18.7196 18.1705C20.6736 18.8258 22.9061 18.0607 24.0634 16.3421C25.3426 14.4509 25.1071 11.987 23.4983 10.3783C22.8471 9.72704 22.0859 9.30317 21.1992 9.10317C20.8736 9.02868 19.9163 8.97378 19.6496 9.01296ZM21.0816 10.2409C22.3371 10.5823 23.2985 11.5474 23.6436 12.8148C23.7653 13.2621 23.7653 14.1252 23.6436 14.5805C23.4632 15.2474 23.1138 15.8283 22.6196 16.2911C21.882 16.9817 20.9912 17.3113 19.9908 17.2564C19.0883 17.2093 18.3624 16.8915 17.6955 16.2519C16.2477 14.8668 16.2477 12.5285 17.6955 11.1434C18.2565 10.6019 18.8412 10.3077 19.6689 10.1507C19.9124 10.1077 20.7951 10.1587 21.0816 10.2409Z" fill="black"/>
<path d="M19.2963 19.2144C17.5504 19.3479 16.7067 19.4969 15.5924 19.8658C14.9765 20.0699 13.9994 20.5603 13.5089 20.9056C12.9989 21.2705 12.2926 21.9846 11.9826 22.4436C11.5549 23.0871 11.3077 23.6403 11.1312 24.3505C11.0096 24.8293 10.9624 25.8377 11.033 26.375C11.1781 27.4658 11.8453 28.3564 12.8261 28.7644C13.4185 29.0115 13.0851 28.9999 20.1828 28.9999C27.2532 28.9999 26.9195 29.0117 27.5042 28.7762C28.0418 28.5605 28.6067 28.0856 28.905 27.5952C29.262 27.0066 29.3836 26.4103 29.3483 25.4097C29.3169 24.5348 29.1914 24.005 28.8265 23.2322C28.2261 21.9648 27.1863 20.9683 25.7308 20.2658C24.6481 19.744 23.3573 19.4144 21.8271 19.2693C21.3563 19.226 19.6377 19.1869 19.2963 19.2144ZM22.0036 20.4269C24.0518 20.6701 25.4995 21.2154 26.6138 22.1571C27.3436 22.7771 27.8654 23.5852 28.1087 24.4838C28.2069 24.8526 28.2579 25.9787 28.1873 26.3513C28.0579 27.0497 27.5242 27.6226 26.8336 27.807C26.5354 27.8854 13.823 27.8854 13.5249 27.807C12.8343 27.6226 12.3008 27.0497 12.1712 26.3513C12.1006 25.9787 12.1477 24.8487 12.2498 24.4838C12.6696 22.9536 13.8506 21.7569 15.6279 21.0585C16.55 20.6936 17.7898 20.4465 19.1983 20.3522C19.6769 20.3207 21.5171 20.3679 22.0036 20.4269Z" fill="black"/>
</svg>
