<svg width="72" height="96" viewBox="0 0 72 96" fill="none" xmlns="http://www.w3.org/2000/svg">
<path fill-rule="evenodd" clip-rule="evenodd" d="M53.3596 82.7909C48.9414 87.6599 43.8499 91.8725 38.2396 95.3009C37.8905 95.5592 37.4711 95.7052 37.0371 95.7195C36.6031 95.7338 36.1749 95.6157 35.8096 95.3809C27.818 90.335 20.7212 83.9952 14.8096 76.6209C7.10963 67.0009 2.27963 56.3509 0.629628 46.0809C-1.02037 35.8109 0.539628 25.6609 5.69963 17.5209C7.80758 14.2083 10.4579 11.274 13.5396 8.84087C20.8396 3.00087 29.1896 -0.0591343 37.5396 0.000865687C46.0055 0.136934 54.1112 3.44916 60.2496 9.28087C62.6165 11.4408 64.6607 13.9295 66.3196 16.6709C71.8896 25.8409 73.0896 37.5409 70.6396 49.4009C67.9362 61.8552 61.9728 73.3678 53.3596 82.7609V82.7909ZM35.9096 12.2909C40.677 12.2889 45.3379 13.7009 49.3026 16.3483C53.2674 18.9957 56.3579 22.7595 58.1832 27.1636C60.0085 31.5677 60.4866 36.4142 59.557 41.0901C58.6275 45.766 56.3319 50.0611 52.9609 53.4321C49.5899 56.8032 45.2947 59.0987 40.6189 60.0283C35.943 60.9579 31.0964 60.4798 26.6923 58.6544C22.2882 56.8291 18.5244 53.7386 15.877 49.7739C13.2297 45.8091 11.8176 41.1482 11.8196 36.3809C11.8249 29.9934 14.3647 23.8691 18.8813 19.3525C23.3979 14.8359 29.5222 12.2962 35.9096 12.2909Z" />
<circle cx="36.5" cy="36.5" r="24.5" fill="white"/>
<path d="M53.198 26.6007L49.512 20.833C49.184 20.318 48.5986 20 47.9746 20H25.0229C24.3989 20 23.8135 20.318 23.4854 20.833L19.7931 26.6007C17.889 29.5767 19.5744 33.7164 23.1316 34.1933C23.389 34.2251 23.6527 34.2442 23.91 34.2442C25.5889 34.2442 27.0813 33.5193 28.1041 32.4001C29.1269 33.5193 30.6193 34.2442 32.2982 34.2442C33.9771 34.2442 35.4695 33.5193 36.4923 32.4001C37.5151 33.5193 39.0075 34.2442 40.6864 34.2442C42.3718 34.2442 43.8577 33.5193 44.8805 32.4001C45.9097 33.5193 47.3957 34.2442 49.0746 34.2442C49.3384 34.2442 49.5957 34.2251 49.853 34.1933C53.4231 33.7227 55.1149 29.583 53.2044 26.6007H53.198ZM50.1167 36.2091H50.1103C49.7694 36.2536 49.422 36.2791 49.0682 36.2791C48.2705 36.2791 47.5051 36.1582 46.791 35.942V44.4186H26.2065V35.9357C25.486 36.1582 24.7141 36.2791 23.9164 36.2791C23.5626 36.2791 23.2088 36.2536 22.8679 36.2091H22.8615C22.5977 36.171 22.3404 36.1265 22.0896 36.0629V44.4186V48.4884C22.0896 50.7331 23.9357 52.5581 26.2065 52.5581H46.791C49.0618 52.5581 50.9079 50.7331 50.9079 48.4884V44.4186V36.0629C50.6506 36.1265 50.3933 36.1773 50.1167 36.2091Z" fill="black"/>
</svg>
