<svg width="44" height="54" viewBox="0 0 44 54" fill="none" xmlns="http://www.w3.org/2000/svg">
<path d="M44 21.9685C44 30.3336 39.318 37.6066 32.428 41.3172C29.3246 42.9885 25.7732 43.937 22 43.937C18.2268 43.937 14.6754 42.9885 11.572 41.3172C4.68203 37.6066 0 30.3336 0 21.9685C0 9.83564 9.84974 0 22 0C34.1503 0 44 9.83564 44 21.9685Z" />
<path d="M22 43.937C18.2268 43.937 14.6754 42.9885 11.572 41.3172C19.1859 56.1705 22 53.5 22 53.5C22 53.5 24.8664 55.3727 32.428 41.3172C29.3246 42.9885 25.7732 43.937 22 43.937Z" />
<path d="M33.4271 13.7148L30.7943 9.59502C30.56 9.22711 30.1419 9 29.6962 9H13.302C12.8563 9 12.4382 9.22711 12.2039 9.59502L9.56649 13.7148C8.20644 15.8405 9.41027 18.7974 11.9512 19.1381C12.135 19.1608 12.3234 19.1744 12.5071 19.1744C13.7064 19.1744 14.7724 18.6566 15.5029 17.8572C16.2335 18.6566 17.2995 19.1744 18.4987 19.1744C19.698 19.1744 20.7639 18.6566 21.4945 17.8572C22.2251 18.6566 23.2911 19.1744 24.4903 19.1744C25.6941 19.1744 26.7555 18.6566 27.4861 17.8572C28.2212 18.6566 29.2826 19.1744 30.4819 19.1744C30.6703 19.1744 30.854 19.1608 31.0378 19.1381C33.5879 18.802 34.7964 15.845 33.4317 13.7148H33.4271ZM31.2262 20.5779H31.2216C30.9781 20.6097 30.73 20.6279 30.4773 20.6279C29.9075 20.6279 29.3607 20.5416 28.8507 20.3872V26.4419H14.1475V20.3826C13.6329 20.5416 13.0815 20.6279 12.5117 20.6279C12.259 20.6279 12.0063 20.6097 11.7628 20.5779H11.7582C11.5698 20.5507 11.386 20.5189 11.2068 20.4735V26.4419V29.3488C11.2068 30.9522 12.5255 32.2558 14.1475 32.2558H28.8507C30.4727 32.2558 31.7914 30.9522 31.7914 29.3488V26.4419V20.4735C31.6076 20.5189 31.4238 20.5552 31.2262 20.5779Z" fill="white"/>
</svg>
