<svg width="18" height="19" viewBox="0 0 18 19" fill="none" xmlns="http://www.w3.org/2000/svg">
<path d="M17.3077 9.45038C17.3077 9.82924 17.164 10.1955 16.8952 10.4607C16.6328 10.7322 16.2703 10.8837 15.8954 10.8837H10.2461V16.5919C10.2461 16.9708 10.0961 17.337 9.82736 17.6022C9.56489 17.8674 9.20868 18.0189 8.83373 18.0189C8.45877 18.0189 8.09632 17.8674 7.83385 17.6022C7.56513 17.337 7.41515 16.9708 7.41515 16.5919V10.8837H1.76584C1.39089 10.8837 1.02843 10.7322 0.765965 10.4607C0.503497 10.1955 0.353516 9.82924 0.353516 9.45038C0.353516 9.07152 0.503497 8.71161 0.765965 8.44009C1.02843 8.17489 1.39089 8.02335 1.76584 8.02335H7.41515V2.31519C7.41515 1.93633 7.56513 1.5701 7.83385 1.3049C8.09632 1.03338 8.45877 0.881836 8.83373 0.881836C9.20868 0.881836 9.56489 1.03338 9.82736 1.3049C10.0961 1.5701 10.2461 1.93633 10.2461 2.31519V8.02335H15.8954C16.2703 8.02335 16.6328 8.17489 16.8952 8.44009C17.164 8.71161 17.3077 9.07152 17.3077 9.45038Z" fill="url(#paint0_linear_807_1828)"/>
<defs>
<linearGradient id="paint0_linear_807_1828" x1="0.527405" y1="9.45038" x2="17.3077" y2="9.45038" gradientUnits="userSpaceOnUse">
<stop stop-color="#31C2F1"/>
<stop offset="1" stop-color="#71D1F0"/>
</linearGradient>
</defs>
</svg>
