<svg width="128" height="112" viewBox="0 0 128 112" fill="none" xmlns="http://www.w3.org/2000/svg">
<path fill-rule="evenodd" clip-rule="evenodd" d="M23.1722 1.00538C1.36418 7.17038 -7.11382 33.1534 6.75118 51.3304C9.19118 54.5294 9.22118 54.8174 9.22118 74.9354C9.22118 89.4434 9.56618 95.6474 10.4212 96.5024C11.0952 97.1764 14.3272 97.7024 17.7962 97.7024C23.8232 97.7024 23.9852 97.6324 24.5562 94.7754C25.3182 90.9664 31.1122 85.2234 35.7302 83.6994C44.0092 80.9674 54.4102 86.0514 57.3882 94.2884C58.5982 97.6324 58.7402 97.7024 64.3502 97.7024C73.6412 97.7024 73.2212 99.3164 73.2212 63.6314C73.2212 34.0354 73.1352 32.6164 71.2212 30.7024C69.9832 29.4644 67.8882 28.7024 65.7212 28.7024C63.0022 28.7024 62.2212 28.2964 62.2212 26.8804C62.2212 22.7174 58.7532 15.3974 54.5822 10.7584C46.6592 1.94638 33.8782 -2.02162 23.1722 1.00538ZM39.7352 8.36238C42.7952 9.40438 46.2072 11.6694 48.9122 14.4514C64.0802 30.0594 53.0502 55.9024 31.2212 55.9024C9.37718 55.9024 -1.63782 30.0584 13.5482 14.4344C20.5592 7.21938 29.9762 5.03638 39.7352 8.36238ZM79.7922 40.2734C78.4422 41.6244 78.2212 45.6084 78.2212 68.5734C78.2212 95.4844 78.4972 97.7024 81.8422 97.7024C82.5132 97.7024 83.3642 96.3254 83.7342 94.6434C84.6022 90.6914 90.0882 85.2314 94.7302 83.6994C103.009 80.9674 113.41 86.0514 116.388 94.2884C117.495 97.3504 118.011 97.7024 121.387 97.7024C124.085 97.7024 125.444 97.1544 126.186 95.7684C127.811 92.7314 127.502 67.3094 125.79 63.2134C123.929 58.7584 109.835 40.1524 107.702 39.3334C106.797 38.9864 100.501 38.7024 93.7112 38.7024C83.8202 38.7024 81.0512 39.0154 79.7922 40.2734ZM112.211 57.3484C115.613 62.1044 118.635 66.6174 118.927 67.3784C119.366 68.5224 117.141 68.7134 106.089 68.4824L92.7212 68.2024L92.4352 58.4524L92.1492 48.7024H99.0882H106.027L112.211 57.3484ZM37.5342 89.8154C26.5592 92.9544 28.2842 109.913 39.7212 111.316C48.8812 112.44 55.1122 103.194 50.8062 94.8674C48.5312 90.4674 42.8352 88.2984 37.5342 89.8154ZM96.5342 89.8294C89.0112 91.9474 86.6282 101.768 92.1392 107.936C94.7212 110.826 95.6522 111.202 100.221 111.202C104.79 111.202 105.721 110.826 108.303 107.936C111.642 104.199 112.151 99.4024 109.711 94.6824C107.369 90.1534 102.176 88.2414 96.5342 89.8294Z" />
</svg>
