<svg width="1200" height="1200" viewBox="0 0 1200 1200" fill="none" xmlns="http://www.w3.org/2000/svg">
    <g clip-path="url(#clip0_393_9)">
    <path d="M960.012 0.00390625L239.988 0.00390625C107.446 0.00390625 0 107.45 0 239.992L0 960.016C0 1092.56 107.446 1200 239.988 1200H960.012C1092.55 1200 1200 1092.56 1200 960.016V239.992C1200 107.45 1092.55 0.00390625 960.012 0.00390625Z" fill="#EB5B08"/>
    <path fill-rule="evenodd" clip-rule="evenodd" d="M816.364 184.821C734.776 205.068 680.829 284.656 694.158 365.104C699.72 398.669 712.043 422.265 743.246 459.108C782.182 505.083 802.538 535.074 826.06 581.12C854.078 635.971 857.494 636.293 884.043 586.592C907.662 542.378 933.524 503.778 968.244 460.91C1011.74 407.202 1025.13 368.098 1017.31 317.571C1002.78 223.686 909.105 161.804 816.364 184.821ZM913.063 218.091C941.874 231.281 965.53 254.493 979.89 283.666C990.715 305.655 992.038 311.811 992.038 340.192C992.038 380.503 983.273 400.553 944.326 449.345C914.536 486.667 886.017 528.175 868.393 559.859C857.935 578.66 851.872 584.304 851.872 575.244C851.872 565.201 804.04 492.075 772.741 454.272C727.645 399.805 719.182 381.774 719.19 340.181C719.194 311.725 720.505 305.651 731.472 283.374C749.294 247.178 783.419 219.025 820.976 209.539C845.245 203.413 890.091 207.576 913.063 218.091ZM827.577 270.546C812.656 277.394 795.941 294.494 789.676 309.314C779.861 332.541 785.725 367.78 802.489 386.319C824.265 410.398 872.303 414.775 898.18 395.036C936.738 365.627 935.557 303.85 895.933 277.629C878.205 265.897 845.163 262.473 827.577 270.546ZM878.16 297.35C901.349 309.34 908.066 345.612 890.88 366.038C864.129 397.828 810.757 380.346 810.757 339.799C810.757 302.044 845.242 280.328 878.16 297.35ZM341.845 497.798C322.734 499.801 307.779 504.526 285.33 515.649C199.527 558.166 159.349 655.882 190.474 746.343C199.781 773.405 208.665 786.958 246.918 832.45C286.392 879.4 317.165 926.656 342.013 978.491C368.551 1033.84 370.316 1033.84 397.452 978.491C421.975 928.473 452.797 880.872 488.817 837.391C546.965 767.196 557.947 742.811 557.816 684.143C557.685 625.151 541.138 586.356 499.175 546.669C458.138 507.86 404.568 491.216 341.845 497.798ZM404.389 525.181C437.92 532.286 462.496 546.176 487.001 571.869C523.971 610.629 539.916 659.422 531.558 708.218C525.477 743.712 512.81 767.428 476.535 811.227C438.859 856.719 405.944 904.966 385.768 944.261C377.959 959.474 370.671 971.924 369.572 971.935C368.469 971.943 361.992 960.599 355.17 946.72C336.467 908.655 300.136 855.007 263.588 811.492C227.948 769.05 216.279 749.109 208.991 718.191C189.315 634.693 247.818 543.91 333.263 525.349C363.692 518.74 373.874 518.714 404.389 525.181ZM338.877 592.632C308.546 603.774 284.299 633.187 278.505 665.87C272.196 701.472 293.389 741.514 328.146 759.672C388.332 791.114 459.581 748.138 459.906 680.2C460.216 615.582 398.323 570.8 338.877 592.632ZM398.424 620.389C420.663 630.488 434.878 653.053 434.747 678.062C434.631 701.345 426.561 717.686 408.31 731.605C396.45 740.654 391.195 742.079 369.703 742.079C348.211 742.079 342.955 740.654 331.095 731.605C312.844 717.686 304.774 701.345 304.658 678.062C304.479 642.92 334.231 613.291 369.703 613.291C376.898 613.291 389.823 616.486 398.424 620.389ZM802.336 630.043C787.89 639.859 786.742 642.015 790.6 652.066C793.75 660.282 805.674 659.448 818.801 650.096C828.605 643.118 829.259 641.514 824.538 636.08C821.608 632.708 818.562 627.827 817.773 625.236C816.771 621.944 812.133 623.386 802.336 630.043ZM722.92 662.121C692.584 674.537 683.218 687.111 698.285 695.174C703.686 698.067 710.268 696.878 725.383 690.288C736.361 685.504 750.086 679.621 755.88 677.221C763.721 673.973 766.11 670.717 765.224 664.483C763.609 653.105 747.186 652.189 722.92 662.121ZM637.24 729.404C617.837 755.213 615.976 767.738 631.345 769.024C638.925 769.659 644.076 765.163 658.631 745.203C678.157 718.422 679.603 709.059 664.488 707.303C656.317 706.349 651.839 709.982 637.24 729.404ZM601.978 804.686C600.318 809.313 595.108 823.61 590.402 836.457C583.465 855.392 582.725 860.883 586.492 865.424C597.717 878.948 608.765 867.473 620.278 830.342C625.873 812.296 626.647 805.228 623.447 801.374C616.921 793.506 605.349 795.293 601.978 804.686ZM536.343 907.25C510.515 929.572 507.996 934.289 517.632 942.287C525.615 948.914 544.203 938.867 564.309 917.054C576.886 903.411 578.613 899.685 575.26 893.42C569.157 882.016 563 884.207 536.343 907.25ZM453.712 946.38C443.46 949.774 425.769 972.66 425.769 982.536C425.769 985.515 445.863 978.884 481.155 964.258C487.247 961.731 489.468 958.177 488.63 952.29C487.259 942.62 472.584 940.135 453.712 946.38Z" fill="#FFF1F1"/>
    </g>
    <defs>
    <clipPath id="clip0_393_9">
    <rect width="1200" height="1200" fill="white"/>
    </clipPath>
    </defs>
    </svg>
    